<svg width="27" height="20" viewBox="0 0 27 20" fill="none" xmlns="http://www.w3.org/2000/svg">
<path d="M20.5 3C20.5 9.5 19 16.5006 11 16.5006C2.99997 16.5006 1.5 11.4996 1.5 3.00113C5.5 3.00113 6.58172 3.00118 11 3.00118C15.4183 3.00118 15.5 2.99928 20.5 3Z" fill="#BF9D81"/>
<path d="M2 1C2 0.447715 2.44772 0 3 0H19C19.5523 0 20 0.447715 20 1V3H2V1Z" fill="white"/>
<path fill-rule="evenodd" clip-rule="evenodd" d="M1.71595 2C1.70905 2.01586 1.70227 2.0318 1.6956 2.0478H0.2934C0.1314 2.0478 0 2.1789 0 2.3412V7.539C0 11.4477 2.0847 14.8788 5.2008 16.7787C2.1642 17.2068 2.1636 17.8209 2.1636 18.0612C2.1636 19.6686 10.5633 19.6875 10.9209 19.6875C11.2785 19.6875 19.6779 19.6689 19.6779 18.0612C19.6779 17.8209 19.6773 17.2065 16.6407 16.7784C18.435 15.6843 19.8864 14.0823 20.7957 12.174H22.6026C25.0275 12.174 27.0006 10.203 27.0006 7.7802V3.4185C27 3.2562 26.8686 3.1251 26.7066 3.1251H21.8412V2.3412C21.8412 2.1789 21.7098 2.0478 21.5478 2.0478H20.2704C20.2658 2.03181 20.261 2.01588 20.2562 2H19.6376C19.6433 2.01517 19.649 2.0304 19.6545 2.0457H2.3427C2.3508 2.03037 2.35904 2.01514 2.36742 2H1.71595ZM25.0767 4.9971H21.8412V7.539C21.8412 8.478 21.7203 9.3891 21.4944 10.2585H22.2066C23.7894 10.2585 25.0767 8.9709 25.0767 7.3887V4.9971ZM10.7964 5.2209C6.3468 3.1395 2.7591 4.7481 2.0205 5.1294V7.4322C2.0205 12.3396 6.0129 16.3323 10.9206 16.3323C15.828 16.3323 19.8207 12.3396 19.8207 7.4322V5.4375C19.1154 5.7693 17.6214 6.3357 15.6267 6.3357C14.2272 6.336 12.5835 6.0567 10.7964 5.2209ZM11.0451 4.689C15.5064 6.7767 19.0842 5.1633 19.8207 4.7808V2.6346H2.0205V4.4718C3.222 3.9069 6.7134 2.6625 11.0451 4.689ZM19.0785 18.0615C18.9498 17.913 18.2088 17.5452 15.9465 17.2809C15.8979 17.2755 15.8559 17.2557 15.8178 17.2299C14.373 17.9472 12.7467 18.3525 11.0271 18.3525H10.8135C9.0939 18.3525 7.4679 17.9472 6.0228 17.2299C5.985 17.2554 5.943 17.2752 5.8944 17.2809C3.6321 17.5449 2.8911 17.9127 2.7624 18.0615C3.0531 18.4278 5.7135 19.1001 10.9206 19.1001C16.1277 19.1001 18.7881 18.4278 19.0785 18.0615ZM10.8138 17.7657H11.0274C16.6665 17.7657 21.2541 13.1781 21.2541 7.539V4.7109C21.2541 4.70955 21.2537 4.70843 21.2534 4.7073C21.253 4.70618 21.2526 4.70505 21.2526 4.7037C21.2526 4.70277 21.2528 4.70191 21.253 4.70109C21.2535 4.69952 21.2541 4.69807 21.2541 4.6965V3.4257C21.2541 3.42431 21.2537 3.42308 21.2533 3.42189C21.253 3.42076 21.2526 3.41967 21.2526 3.4185C21.2526 3.41711 21.253 3.41588 21.2534 3.41469C21.2537 3.41356 21.2541 3.41246 21.2541 3.4113V2.6346H20.4075V7.4322C20.4075 12.6636 16.1523 16.9191 10.9209 16.9191C5.6895 16.9191 1.4337 12.6636 1.4337 7.4322V2.6346H0.5871V7.539C0.5871 13.1781 5.1747 17.7657 10.8138 17.7657ZM22.602 11.5872C24.7032 11.5872 26.4129 9.8793 26.4129 7.7802V3.7122H21.8412V4.4103H25.3701C25.5321 4.4103 25.6635 4.5414 25.6635 4.7037V7.389C25.6635 9.2949 24.1128 10.8456 22.2066 10.8456H21.3222C21.2412 11.097 21.1503 11.3442 21.0519 11.5872H22.602Z" fill="#BF9D81"/>
</svg>
