<svg width="115" height="119" viewBox="0 0 115 119" fill="none" xmlns="http://www.w3.org/2000/svg">
<path d="M0 0H115V98.5L0 119V0Z" fill="#CDB59B"/>
<path d="M43.9804 53.7269C42.3346 52.7089 40.5529 53.1979 39.4822 53.6826C39.4942 53.3512 39.5007 53.0181 39.5007 52.6827H39.4985C39.4993 52.6635 39.5007 52.6442 39.5007 52.6246C39.5007 50.8331 36.7533 49.2472 32.5338 48.2739C35.1751 49.1364 36.8046 50.3175 36.8046 51.6207C36.8046 54.2624 30.1127 56.4038 21.8576 56.4038C13.6027 56.4038 6.91083 54.2624 6.91083 51.6207C6.91083 51.2611 7.0357 50.9108 7.2708 50.574C6.45254 51.2058 6 51.8983 6 52.6246C6 55.5852 13.4994 57.9849 22.7504 57.9849C28.8574 57.9849 34.2003 56.9389 37.1272 55.3763C36.5194 60.6673 34.2526 65.2814 31.013 68.3561C28.1806 71.1199 24.6257 72.7649 20.7655 72.7649C18.9111 72.7649 17.1273 72.3849 15.46 71.6841C17.664 73.0283 20.1373 73.7822 22.7504 73.7822C30.7292 73.7822 37.4048 66.7554 39.0902 57.3469C39.3467 55.914 40.7876 54.9861 42.1834 55.3996C42.8374 55.5936 43.3533 56.0557 43.454 56.9971C43.9212 61.3761 37.9537 66.4727 37.9537 66.4727C43.9143 63.6672 47.332 55.7996 43.9804 53.7269Z" fill="#441719"/>
<path d="M7.76467 53.6357C7.55002 53.5354 7.37334 53.3392 7.20146 53.1387C6.81376 53.0755 6.41855 53.0493 6.02588 53.05C6.03591 53.1391 6.04161 53.2292 6.04252 53.3204C6.11351 60.421 8.96255 66.7096 13.5072 70.1709C9.84523 66.1239 7.74777 60.1681 7.76467 53.6357Z" fill="#441719"/>
<path d="M33.525 72.1353C35.3042 72.7522 36.344 73.497 36.344 74.2992C36.344 76.4293 29.0119 78.1558 19.9676 78.1558C15.5985 78.1558 11.6293 77.7529 8.69287 77.0964C11.6386 78.118 16.6115 78.7891 22.2504 78.7891C31.295 78.7891 38.6271 77.0622 38.6271 74.9325C38.6271 73.8313 36.6674 72.838 33.525 72.1353Z" fill="#441719"/>
<path d="M20.6999 32.4087C20.6999 32.4087 20.6859 32.4268 20.6588 32.4621C20.6326 32.4977 20.5892 32.5463 20.5455 32.6201C20.4521 32.7611 20.3343 32.9838 20.2605 33.2871C20.239 33.3616 20.2283 33.4437 20.2128 33.5277C20.204 33.6134 20.191 33.7017 20.1899 33.7954C20.1826 33.9818 20.1918 34.1838 20.228 34.3956C20.2641 34.6067 20.3244 34.8276 20.4149 35.0463C20.5058 35.2694 20.6279 35.4943 20.775 35.7192C21.0688 36.1704 21.4738 36.6148 21.9522 37.0765C22.4327 37.5416 22.9706 38.028 23.5371 38.5512C24.1035 39.0755 24.7022 39.6401 25.2901 40.2806C25.8767 40.92 26.4536 41.6452 26.9346 42.4717C27.4157 43.2968 27.7786 44.1928 27.9519 45.1116C27.9948 45.3412 28.0275 45.5712 28.0467 45.8008L28.0551 45.8865L28.0591 45.9737C28.0616 46.0319 28.0642 46.09 28.0667 46.1478C28.074 46.2633 28.0678 46.3781 28.0664 46.4922C28.0526 46.9482 27.9875 47.3903 27.8796 47.8096C27.6671 48.6496 27.2642 49.3965 26.7522 49.9782C26.6861 50.049 26.6204 50.1192 26.5553 50.1886C26.4859 50.2543 26.4155 50.3175 26.3464 50.3804C26.2796 50.4451 26.2026 50.4985 26.1306 50.5551C26.0943 50.5828 26.0583 50.6104 26.0223 50.638C25.9867 50.666 25.9468 50.6881 25.9097 50.7132C25.8338 50.7611 25.7597 50.8095 25.6852 50.8549C25.6092 50.8974 25.5339 50.9388 25.4582 50.9755C25.3071 51.05 25.1575 51.1154 25.0101 51.1699C24.7156 51.2803 24.4331 51.3581 24.1676 51.4187C23.9018 51.4801 23.6527 51.5241 23.4211 51.5626C22.9586 51.6407 22.5468 51.6883 22.2102 51.6901C21.8732 51.6941 21.6137 51.6564 21.4433 51.6189C21.358 51.5986 21.294 51.5822 21.2515 51.5684C21.209 51.5553 21.1874 51.5488 21.1874 51.5488C21.1874 51.5488 21.21 51.5495 21.2544 51.5506C21.2984 51.5532 21.3643 51.5524 21.4495 51.5506C21.6204 51.5448 21.8701 51.5197 22.1804 51.4438C22.4915 51.3697 22.86 51.2429 23.2905 51.0776C23.7201 50.9126 24.2048 50.7241 24.6729 50.4512C24.79 50.3833 24.904 50.3081 25.0159 50.2285C25.072 50.1886 25.1262 50.1461 25.1804 50.1032C25.2319 50.0578 25.2839 50.012 25.3364 49.9655C25.362 49.9415 25.3901 49.9212 25.4139 49.8946C25.4383 49.8692 25.4628 49.8434 25.4873 49.8176C25.5357 49.7653 25.5885 49.7181 25.6323 49.6596C25.6779 49.6036 25.7241 49.5473 25.7706 49.4903C25.8127 49.43 25.8552 49.3693 25.8981 49.3079C26.2265 48.8087 26.4689 48.1998 26.5691 47.5295C26.6211 47.1956 26.6411 46.8482 26.6247 46.498C26.6189 46.4104 26.6185 46.3222 26.6058 46.2346C26.6007 46.191 26.596 46.147 26.5913 46.1031L26.584 46.037L26.5728 45.9697C26.5459 45.7903 26.5096 45.6101 26.466 45.4295C26.2897 44.7069 25.9758 43.9802 25.562 43.2703C25.1478 42.5586 24.6594 41.9024 24.1442 41.279C23.6296 40.6559 23.0937 40.0655 22.5811 39.4904C22.0676 38.9145 21.5796 38.3554 21.1438 37.801C20.7062 37.2458 20.3235 36.6725 20.0734 36.0909C19.9479 35.8009 19.8533 35.5121 19.796 35.2312C19.737 34.9468 19.7183 34.6754 19.7264 34.4247C19.7345 34.174 19.7726 33.944 19.826 33.7387C19.8501 33.6356 19.8859 33.54 19.9167 33.4496C19.9544 33.3602 19.9864 33.2755 20.0283 33.1996C20.1841 32.8911 20.3637 32.6931 20.4935 32.5758C20.5556 32.514 20.6119 32.477 20.6465 32.4493C20.6817 32.4225 20.6999 32.4087 20.6999 32.4087Z" fill="#CC6B2F"/>
<path d="M21.7245 49.5381C21.7245 49.5381 21.7335 49.5191 21.7512 49.4822C21.768 49.4446 21.7969 49.3917 21.8271 49.3187C21.8854 49.1719 21.9612 48.9536 22.0101 48.6648C22.0592 48.3768 22.0804 48.0188 22.0436 47.6146C22.0377 47.5136 22.0187 47.4101 22.0048 47.3043C21.9963 47.2514 21.984 47.1985 21.9738 47.1444C21.9685 47.1176 21.9632 47.0904 21.9578 47.0632C21.9507 47.0364 21.9437 47.0096 21.9366 46.9824C21.8841 46.7648 21.8064 46.5428 21.701 46.3349C21.6876 46.3092 21.6769 46.2812 21.6614 46.257C21.6466 46.2324 21.6317 46.2075 21.6168 46.1825C21.6016 46.1576 21.5882 46.133 21.5718 46.1073C21.554 46.0808 21.536 46.054 21.518 46.0272C21.5 46.0007 21.4819 45.9739 21.4638 45.9467C21.4445 45.9202 21.425 45.8938 21.4054 45.8673C21.386 45.8405 21.3664 45.8141 21.3467 45.7872C21.3259 45.7608 21.305 45.7347 21.2841 45.7079C21.1163 45.4963 20.9253 45.2865 20.7138 45.0775C20.2913 44.6584 19.7841 44.2453 19.2375 43.7818C18.6979 43.3239 18.1234 42.8366 17.5451 42.2871C16.9674 41.7391 16.3886 41.1166 15.8734 40.3938C15.8116 40.3007 15.75 40.2083 15.6886 40.1159L15.5974 39.977L15.513 39.8331C15.4573 39.737 15.4017 39.6413 15.3464 39.5459C15.2965 39.4464 15.2467 39.3477 15.1971 39.249C15.1726 39.1998 15.1481 39.1503 15.1237 39.1011C15.102 39.0504 15.0804 38.9998 15.0588 38.9491C15.0164 38.8474 14.9741 38.7464 14.9321 38.6458C14.8942 38.543 14.8604 38.4391 14.8252 38.3366C14.7908 38.2334 14.7541 38.1321 14.7296 38.0267C14.6754 37.818 14.6189 37.6135 14.5836 37.4011C14.5616 37.2965 14.5499 37.1906 14.535 37.0863C14.5189 36.9816 14.5113 36.877 14.5025 36.7734C14.4696 36.358 14.4782 35.9508 14.52 35.56C14.5623 35.1688 14.6355 34.7937 14.7371 34.4394C14.8386 34.0851 14.9646 33.7516 15.1072 33.4406C15.2487 33.1291 15.4111 32.8415 15.5829 32.5774C15.6663 32.444 15.7589 32.3203 15.8463 32.1981C15.9399 32.08 16.0278 31.963 16.1238 31.8561C16.4965 31.4206 16.891 31.0845 17.258 30.8282C17.6256 30.5719 17.9683 30.3976 18.2546 30.2787C18.2901 30.2638 18.3248 30.2493 18.3584 30.2348C18.3927 30.2225 18.4261 30.2105 18.4584 30.199C18.523 30.1759 18.5826 30.1535 18.6389 30.1353C18.7531 30.1025 18.8478 30.0723 18.9262 30.0537C19.0827 30.0187 19.1649 30.0001 19.1649 30.0001C19.1649 30.0001 19.0915 30.0403 18.9516 30.117C18.8823 30.1554 18.7995 30.2091 18.7012 30.2679C18.6528 30.2992 18.6021 30.3353 18.5475 30.3719C18.5202 30.3905 18.4922 30.4095 18.4633 30.4292C18.4353 30.4505 18.4065 30.4721 18.3768 30.4944C18.1394 30.671 17.8652 30.9057 17.5862 31.2086C17.3077 31.5115 17.0215 31.8803 16.7676 32.3207C16.7014 32.4287 16.6437 32.5457 16.5808 32.6612C16.5241 32.7811 16.4627 32.9007 16.4104 33.0278C16.3012 33.2792 16.2019 33.5456 16.1218 33.8265C16.0406 34.107 15.9743 34.4002 15.9278 34.7039C15.8812 35.0071 15.8582 35.3208 15.8575 35.6397C15.8573 35.9586 15.8817 36.2831 15.9344 36.6072C15.9864 36.9328 16.0688 37.2521 16.182 37.5792C16.2052 37.6619 16.24 37.7413 16.2717 37.8221C16.3041 37.9026 16.3341 37.9842 16.3677 38.0647C16.4049 38.144 16.4422 38.2237 16.4797 38.3038L16.5354 38.4245L16.5993 38.5426C16.6415 38.6216 16.6837 38.7006 16.7262 38.7803C16.7735 38.8582 16.8208 38.936 16.8684 39.0147L16.9391 39.1324L17.0171 39.2479C17.0689 39.3254 17.1208 39.4032 17.1729 39.4811C18.0475 40.7116 19.1707 41.7689 20.1567 42.8072C20.645 43.3184 21.1302 43.8273 21.5346 44.3671C21.7368 44.6368 21.9189 44.9125 22.0725 45.1923C22.0916 45.2273 22.1106 45.262 22.1295 45.2966C22.1472 45.332 22.1649 45.3674 22.1824 45.4024C22.1997 45.4374 22.2169 45.4724 22.2341 45.5071C22.2499 45.5429 22.2657 45.5782 22.2814 45.6133C22.2967 45.6483 22.3121 45.6833 22.3274 45.718C22.3422 45.7545 22.356 45.7936 22.3701 45.8312C22.3838 45.8685 22.3974 45.9061 22.411 45.9433C22.425 45.9802 22.4329 46.0179 22.4439 46.0547C22.5287 46.3498 22.5665 46.6307 22.5764 46.8937C22.578 46.9265 22.5796 46.9589 22.5813 46.9913C22.581 47.0234 22.5808 47.0554 22.5805 47.0871C22.5795 47.1508 22.5803 47.213 22.5773 47.2741C22.5681 47.3963 22.5635 47.5136 22.5459 47.6265C22.4883 48.0769 22.3739 48.4495 22.2476 48.7367C22.121 49.0243 21.9836 49.2251 21.886 49.3533C21.8359 49.417 21.7923 49.4613 21.7658 49.4923C21.7384 49.5228 21.7245 49.5381 21.7245 49.5381Z" fill="#441719"/>
<path d="M100.961 77.2195C99.8865 77.2195 98.9608 76.9899 98.1843 76.5306C97.4125 76.0666 96.8159 75.4156 96.3945 74.5775C95.9779 73.7347 95.7695 72.7475 95.7695 71.6159C95.7695 70.4984 95.9779 69.5136 96.3945 68.6613C96.8159 67.809 97.4031 67.1438 98.1559 66.6656C98.9135 66.1874 99.7989 65.9482 100.812 65.9482C101.428 65.9482 102.024 66.05 102.602 66.2536C103.18 66.4572 103.698 66.7768 104.157 67.2124C104.617 67.6481 104.979 68.2139 105.244 68.9099C105.509 69.6012 105.642 70.4416 105.642 71.4312V72.184H96.9698V70.5931H103.561C103.561 70.0344 103.447 69.5396 103.22 69.1088C102.993 68.6731 102.673 68.3299 102.261 68.0789C101.854 67.828 101.376 67.7025 100.826 67.7025C100.23 67.7025 99.7089 67.8493 99.2639 68.1428C98.8235 68.4317 98.4826 68.8105 98.2411 69.2792C98.0044 69.7432 97.886 70.2475 97.886 70.792V72.0349C97.886 72.7641 98.0138 73.3843 98.2695 73.8957C98.5299 74.407 98.8922 74.7977 99.3562 75.0676C99.8202 75.3327 100.362 75.4653 100.983 75.4653C101.385 75.4653 101.752 75.4085 102.083 75.2948C102.415 75.1765 102.701 75.0013 102.943 74.7693C103.184 74.5373 103.369 74.2508 103.497 73.9099L105.507 74.2721C105.346 74.864 105.057 75.3824 104.64 75.8275C104.228 76.2678 103.71 76.6111 103.085 76.8573C102.465 77.0988 101.757 77.2195 100.961 77.2195Z" fill="white"/>
<path d="M89.223 77.2195C88.1482 77.2195 87.2225 76.9899 86.446 76.5306C85.6742 76.0666 85.0777 75.4156 84.6562 74.5775C84.2396 73.7347 84.0312 72.7475 84.0312 71.6159C84.0312 70.4984 84.2396 69.5136 84.6562 68.6613C85.0777 67.809 85.6648 67.1438 86.4176 66.6656C87.1752 66.1874 88.0606 65.9482 89.0739 65.9482C89.6894 65.9482 90.286 66.05 90.8636 66.2536C91.4413 66.4572 91.9598 66.7768 92.419 67.2124C92.8783 67.6481 93.2405 68.2139 93.5057 68.9099C93.7708 69.6012 93.9034 70.4416 93.9034 71.4312V72.184H85.2315V70.5931H91.8224C91.8224 70.0344 91.7088 69.5396 91.4815 69.1088C91.2543 68.6731 90.9347 68.3299 90.5227 68.0789C90.1155 67.828 89.6373 67.7025 89.0881 67.7025C88.4915 67.7025 87.9706 67.8493 87.5256 68.1428C87.0852 68.4317 86.7443 68.8105 86.5028 69.2792C86.2661 69.7432 86.1477 70.2475 86.1477 70.792V72.0349C86.1477 72.7641 86.2756 73.3843 86.5312 73.8957C86.7917 74.407 87.1539 74.7977 87.6179 75.0676C88.0819 75.3327 88.6241 75.4653 89.2443 75.4653C89.6468 75.4653 90.0137 75.4085 90.3452 75.2948C90.6766 75.1765 90.9631 75.0013 91.2045 74.7693C91.446 74.5373 91.6307 74.2508 91.7585 73.9099L93.7685 74.2721C93.6075 74.864 93.3187 75.3824 92.902 75.8275C92.4901 76.2678 91.9716 76.6111 91.3466 76.8573C90.7263 77.0988 90.0185 77.2195 89.223 77.2195Z" fill="white"/>
<path d="M82.76 66.0906V67.7952H76.5952V66.0906H82.76ZM78.2856 76.9997V64.8264C78.2856 64.1446 78.4347 63.5788 78.733 63.129C79.0313 62.6744 79.4267 62.3359 79.9191 62.1134C80.4115 61.8861 80.9465 61.7725 81.5242 61.7725C81.9503 61.7725 82.3149 61.808 82.6179 61.879C82.921 61.9453 83.1459 62.0068 83.2927 62.0637L82.7955 63.7824C82.6961 63.754 82.5682 63.7209 82.412 63.683C82.2557 63.6404 82.0663 63.6191 81.8438 63.6191C81.3277 63.6191 80.9584 63.7469 80.7358 64.0026C80.518 64.2583 80.4091 64.6276 80.4091 65.1105V76.9997H78.2856Z" fill="white"/>
<path d="M75.3772 66.0906V67.7952H69.2124V66.0906H75.3772ZM70.9027 76.9997V64.8264C70.9027 64.1446 71.0519 63.5788 71.3502 63.129C71.6485 62.6744 72.0438 62.3359 72.5363 62.1134C73.0287 61.8861 73.5637 61.7725 74.1414 61.7725C74.5675 61.7725 74.9321 61.808 75.2351 61.879C75.5382 61.9453 75.7631 62.0068 75.9098 62.0637L75.4127 63.7824C75.3133 63.754 75.1854 63.7209 75.0292 63.683C74.8729 63.6404 74.6835 63.6191 74.461 63.6191C73.9449 63.6191 73.5756 63.7469 73.353 64.0026C73.1352 64.2583 73.0263 64.6276 73.0263 65.1105V76.9997H70.9027Z" fill="white"/>
<path d="M62.7298 77.2195C61.707 77.2195 60.8145 76.9852 60.0522 76.5164C59.2899 76.0477 58.698 75.3919 58.2766 74.5491C57.8552 73.7063 57.6445 72.7214 57.6445 71.5945C57.6445 70.4629 57.8552 69.4733 58.2766 68.6258C58.698 67.7783 59.2899 67.1201 60.0522 66.6514C60.8145 66.1826 61.707 65.9482 62.7298 65.9482C63.7525 65.9482 64.645 66.1826 65.4073 66.6514C66.1696 67.1201 66.7615 67.7783 67.1829 68.6258C67.6043 69.4733 67.815 70.4629 67.815 71.5945C67.815 72.7214 67.6043 73.7063 67.1829 74.5491C66.7615 75.3919 66.1696 76.0477 65.4073 76.5164C64.645 76.9852 63.7525 77.2195 62.7298 77.2195ZM62.7369 75.4369C63.3997 75.4369 63.949 75.2617 64.3846 74.9113C64.8202 74.5609 65.1422 74.0945 65.3505 73.5122C65.5636 72.9298 65.6701 72.2882 65.6701 71.5874C65.6701 70.8914 65.5636 70.2522 65.3505 69.6698C65.1422 69.0827 64.8202 68.6116 64.3846 68.2565C63.949 67.9014 63.3997 67.7238 62.7369 67.7238C62.0692 67.7238 61.5153 67.9014 61.0749 68.2565C60.6393 68.6116 60.315 69.0827 60.1019 69.6698C59.8936 70.2522 59.7894 70.8914 59.7894 71.5874C59.7894 72.2882 59.8936 72.9298 60.1019 73.5122C60.315 74.0945 60.6393 74.5609 61.0749 74.9113C61.5153 75.2617 62.0692 75.4369 62.7369 75.4369Z" fill="white"/>
<path d="M55.6791 67.1848H53.4632C53.378 66.7114 53.2194 66.2947 52.9873 65.9348C52.7553 65.575 52.4713 65.2696 52.1351 65.0186C51.7989 64.7677 51.4225 64.5783 51.0058 64.4505C50.5939 64.3226 50.1559 64.2587 49.6919 64.2587C48.8538 64.2587 48.1034 64.4694 47.4405 64.8908C46.7823 65.3122 46.2615 65.9301 45.878 66.7445C45.4992 67.5589 45.3098 68.5532 45.3098 69.7275C45.3098 70.9112 45.4992 71.9102 45.878 72.7246C46.2615 73.539 46.7847 74.1545 47.4476 74.5712C48.1105 74.9879 48.8562 75.1962 49.6848 75.1962C50.1441 75.1962 50.5797 75.1346 50.9916 75.0115C51.4083 74.8837 51.7847 74.6967 52.1209 74.4505C52.457 74.2043 52.7411 73.9036 52.9731 73.5485C53.2099 73.1886 53.3732 72.7767 53.4632 72.3127L55.6791 72.3198C55.5607 73.0347 55.3311 73.6929 54.9902 74.2942C54.654 74.8908 54.2208 75.4069 53.6905 75.8425C53.1649 76.2734 52.5636 76.6072 51.8865 76.8439C51.2094 77.0807 50.4708 77.199 49.6706 77.199C48.4111 77.199 47.289 76.9007 46.3041 76.3042C45.3193 75.7028 44.5427 74.8435 43.9746 73.726C43.4111 72.6086 43.1294 71.2757 43.1294 69.7275C43.1294 68.1744 43.4135 66.8416 43.9817 65.7289C44.5498 64.6114 45.3264 63.7544 46.3112 63.1578C47.2961 62.5565 48.4159 62.2559 49.6706 62.2559C50.4424 62.2559 51.1621 62.3671 51.8297 62.5897C52.502 62.8075 53.1057 63.1294 53.6408 63.5556C54.1758 63.977 54.6185 64.4931 54.9689 65.1039C55.3193 65.7099 55.556 66.4036 55.6791 67.1848Z" fill="white"/>
<path d="M88.186 32.1075C88.042 32.1075 87.97 32.0235 87.97 31.8555C87.97 31.7355 88.006 31.5915 88.078 31.4235C88.27 31.0155 88.486 30.4395 88.726 29.6955C88.99 28.9515 89.314 28.3155 89.698 27.7875L91.498 24.0795C91.354 24.0795 91.21 24.1155 91.066 24.1875C90.946 24.2595 90.886 24.3195 90.886 24.3675C90.886 24.4635 90.754 24.5595 90.49 24.6555C90.226 24.7515 90.082 24.8115 90.058 24.8355C89.698 24.9315 89.362 25.0395 89.05 25.1595C88.81 25.4235 88.57 25.6875 88.33 25.9515C88.114 26.2155 87.91 26.4795 87.718 26.7435C87.694 26.7675 87.67 26.7795 87.646 26.7795C87.43 27.0195 87.25 27.1995 87.106 27.3195C86.962 27.4395 86.806 27.5475 86.638 27.6435C86.542 27.7155 86.446 27.7395 86.35 27.7155C86.23 27.6675 86.218 27.6195 86.314 27.5715C86.434 27.5235 86.626 27.3555 86.89 27.0675C87.154 26.7795 87.358 26.5635 87.502 26.4195C87.622 26.3475 87.658 26.3475 87.61 26.4195C87.586 26.4915 87.622 26.4795 87.718 26.3835L88.618 25.2315L88.654 25.1955C88.534 25.1235 88.474 24.9315 88.474 24.6195C88.474 24.3795 88.522 24.1875 88.618 24.0435C88.618 24.0195 88.642 24.0075 88.69 24.0075L89.446 23.7915C89.518 23.7915 89.566 23.7795 89.59 23.7555C89.638 23.7075 89.686 23.6475 89.734 23.5755C89.806 23.4795 89.89 23.3595 89.986 23.2155L90.418 22.6395L90.706 22.2435C90.706 22.1715 90.754 22.0875 90.85 21.9915C90.97 21.8715 91.066 21.7875 91.138 21.7395C91.234 21.5955 91.294 21.4875 91.318 21.4155C91.366 21.3195 91.438 21.1995 91.534 21.0555C91.534 21.0315 91.57 21.0195 91.642 21.0195C91.714 20.9955 91.75 20.9715 91.75 20.9475C91.774 20.7075 91.81 20.5995 91.858 20.6235C91.93 20.6235 91.966 20.5875 91.966 20.5155C91.966 20.4435 92.014 20.3835 92.11 20.3355L92.29 20.1195C92.29 20.0955 92.326 20.0475 92.398 19.9755V19.9395C92.398 19.8915 92.398 19.8315 92.398 19.7595C92.398 19.6875 92.422 19.6155 92.47 19.5435C92.518 19.4955 92.554 19.4715 92.578 19.4715C92.602 19.4715 92.614 19.4715 92.614 19.4715C92.614 19.4475 92.602 19.4355 92.578 19.4355C92.578 19.4115 92.578 19.3995 92.578 19.3995C92.578 19.3035 92.626 19.2435 92.722 19.2195C92.818 19.1955 92.866 19.1595 92.866 19.1115C92.914 18.7755 93.202 18.5235 93.73 18.3555C94.258 18.1875 94.726 18.1035 95.134 18.1035C95.542 18.1035 95.746 18.1635 95.746 18.2835C95.746 18.3315 95.674 18.4155 95.53 18.5355C95.458 18.5595 95.338 18.6675 95.17 18.8595C95.002 19.0275 94.846 19.2315 94.702 19.4715L94.414 19.9035C94.39 19.9515 94.354 20.0115 94.306 20.0835C94.282 20.1315 94.246 20.1795 94.198 20.2275C94.03 20.5155 93.802 20.9235 93.514 21.4515C93.25 21.9555 92.962 22.5195 92.65 23.1435L93.586 23.0355C93.658 23.0355 93.682 23.0475 93.658 23.0715C93.658 23.0955 93.694 23.0955 93.766 23.0715C93.886 23.0715 93.97 23.0595 94.018 23.0355C94.066 22.9875 94.15 22.9515 94.27 22.9275C94.462 22.9035 94.678 22.8915 94.918 22.8915C95.182 22.8675 95.386 22.8555 95.53 22.8555C95.626 22.8555 95.746 22.8555 95.89 22.8555C96.034 22.8555 96.142 22.8675 96.214 22.8915C96.262 22.8915 96.274 22.9155 96.25 22.9635C96.25 22.9875 96.262 22.9995 96.286 22.9995C96.334 22.9995 96.37 22.9875 96.394 22.9635C96.442 22.9395 96.49 22.9275 96.538 22.9275C96.562 22.9035 96.598 22.9035 96.646 22.9275C96.718 22.9275 96.766 22.9275 96.79 22.9275L97.15 23.0355C97.294 23.0595 97.366 23.1435 97.366 23.2875C97.39 23.4315 97.33 23.4795 97.186 23.4315C97.09 23.3835 97.006 23.3595 96.934 23.3595H96.034C95.866 23.3595 95.71 23.3595 95.566 23.3595C95.422 23.3595 95.278 23.3715 95.134 23.3955C95.086 23.4195 95.062 23.3955 95.062 23.3235C95.086 23.2515 95.074 23.2155 95.026 23.2155C95.002 23.2155 94.966 23.2515 94.918 23.3235C94.87 23.3715 94.834 23.3955 94.81 23.3955L94.63 23.5035C94.246 23.5995 93.838 23.7075 93.406 23.8275C92.974 23.9235 92.554 24.0315 92.146 24.1515C91.786 24.8955 91.438 25.6035 91.102 26.2755C90.79 26.9235 90.55 27.4275 90.382 27.7875C90.334 27.9315 90.31 28.0155 90.31 28.0395C90.31 28.2315 90.418 28.3275 90.634 28.3275C90.778 28.3275 90.922 28.2915 91.066 28.2195L91.426 28.0755C92.002 27.5475 92.602 27.1035 93.226 26.7435C93.25 26.7435 93.262 26.7435 93.262 26.7435C93.286 26.7195 93.31 26.7075 93.334 26.7075C93.406 26.7075 93.454 26.7555 93.478 26.8515C93.502 26.9235 93.478 26.9835 93.406 27.0315C92.71 27.4155 92.062 27.9075 91.462 28.5075C91.438 28.5555 91.414 28.6035 91.39 28.6515C91.366 28.6995 91.33 28.7475 91.282 28.7955C91.234 28.8435 91.162 28.9275 91.066 29.0475C90.994 29.1675 90.958 29.2395 90.958 29.2635C90.934 29.3355 90.898 29.3595 90.85 29.3355C90.826 29.3115 90.754 29.3475 90.634 29.4435C90.61 29.4675 90.586 29.5155 90.562 29.5875C90.562 29.6595 90.55 29.7195 90.526 29.7675C90.478 29.8395 90.43 29.8995 90.382 29.9475C90.334 29.9715 90.31 29.9955 90.31 30.0195C90.286 30.1155 90.238 30.1755 90.166 30.1995C90.118 30.1995 90.07 30.2235 90.022 30.2715C89.998 30.2715 89.986 30.2835 89.986 30.3075C89.986 30.5235 89.962 30.6195 89.914 30.5955C89.866 30.5715 89.83 30.5955 89.806 30.6675C89.71 30.7635 89.638 30.8115 89.59 30.8115C89.446 30.8595 89.386 30.8955 89.41 30.9195C89.458 30.9435 89.494 30.9675 89.518 30.9915C89.566 30.9915 89.53 31.0275 89.41 31.0995C89.362 31.1235 89.314 31.1955 89.266 31.3155C89.218 31.4115 89.17 31.4835 89.122 31.5315C89.05 31.5795 88.978 31.6155 88.906 31.6395C88.834 31.6635 88.774 31.7115 88.726 31.7835C88.51 31.9995 88.33 32.1075 88.186 32.1075ZM90.238 23.6475C90.334 23.6235 90.418 23.5995 90.49 23.5755C90.586 23.5515 90.682 23.5155 90.778 23.4675L91.858 23.2875C92.146 22.7115 92.398 22.1955 92.614 21.7395C92.83 21.2595 92.986 20.9115 93.082 20.6955C93.082 20.6955 93.058 20.6835 93.01 20.6595C92.986 20.6115 92.974 20.5635 92.974 20.5155C92.926 20.4915 92.866 20.4555 92.794 20.4075C92.746 20.3595 92.698 20.3235 92.65 20.2995L92.326 20.6235L91.93 21.1635C91.93 21.1875 91.894 21.2115 91.822 21.2355C91.774 21.2355 91.75 21.2475 91.75 21.2715C91.75 21.3435 91.714 21.4155 91.642 21.4875C91.594 21.5595 91.546 21.5835 91.498 21.5595L91.354 21.9195C91.354 21.9915 91.318 22.0515 91.246 22.0995L90.994 22.4235C90.994 22.4475 90.982 22.4715 90.958 22.4955C90.958 22.4955 90.958 22.5195 90.958 22.5675C90.934 22.6155 90.898 22.6755 90.85 22.7475C90.802 22.8195 90.742 22.8915 90.67 22.9635C90.646 22.9635 90.634 22.9755 90.634 22.9995C90.634 22.9995 90.622 22.9995 90.598 22.9995L90.49 23.2155C90.394 23.2635 90.334 23.2875 90.31 23.2875L90.274 23.3595C90.274 23.5035 90.262 23.5995 90.238 23.6475Z" fill="white"/>
<path d="M78.9575 32.3239C78.4295 32.3239 77.9615 32.1799 77.5535 31.8919C77.1695 31.5799 76.9775 31.0519 76.9775 30.3079C76.9775 30.0439 77.0255 29.6719 77.1215 29.1919C77.2175 28.7119 77.3735 28.2079 77.5895 27.6799C77.7095 27.3919 77.8415 27.1159 77.9855 26.8519C78.1535 26.5879 78.3095 26.3359 78.4535 26.0959C78.4775 26.0719 78.5495 26.0959 78.6695 26.1679C78.8135 26.2399 78.8975 26.2639 78.9215 26.2399C78.9455 26.1919 78.9095 26.1439 78.8135 26.0959C78.7415 26.0239 78.7175 25.9759 78.7415 25.9519C78.7895 25.9039 78.8255 25.8799 78.8495 25.8799C78.8975 25.8559 78.9335 25.8199 78.9575 25.7719C78.9815 25.7239 78.9935 25.6759 78.9935 25.6279C78.9935 25.5559 78.9575 25.4959 78.8855 25.4479C78.8375 25.3999 78.8615 25.3279 78.9575 25.2319C79.0775 25.0639 79.2095 24.9079 79.3535 24.7639C79.5215 24.5959 79.6655 24.4519 79.7855 24.3319C79.8335 24.2839 79.8935 24.2119 79.9655 24.1159C80.0375 23.9959 80.0855 23.9239 80.1095 23.8999L80.1815 23.8279C80.2055 23.8039 80.2295 23.7799 80.2535 23.7559C80.2535 23.7319 80.2535 23.7199 80.2535 23.7199C80.2775 23.7199 80.2895 23.7079 80.2895 23.6839C80.2895 23.6119 80.2175 23.5399 80.0735 23.4679C79.9295 23.3959 79.8575 23.3479 79.8575 23.3239C79.8575 23.2999 79.8455 23.2759 79.8215 23.2519C79.7975 23.2279 79.7735 23.1919 79.7495 23.1439C79.7735 23.1439 79.7975 23.1199 79.8215 23.0719C79.8695 22.9999 79.9055 22.9639 79.9295 22.9639C79.9535 22.9639 80.0015 22.9879 80.0735 23.0359C80.1455 23.0599 80.1935 23.0719 80.2175 23.0719C80.2415 23.0719 80.2535 23.0599 80.2535 23.0359C80.2775 23.0119 80.3015 22.9999 80.3255 22.9999C80.3735 22.9999 80.4815 23.0359 80.6495 23.1079C80.8175 23.1559 80.9135 23.1799 80.9375 23.1799C80.9615 23.1799 81.0335 23.1199 81.1535 22.9999C81.2735 22.8799 81.3455 22.8079 81.3695 22.7839C81.4175 22.7359 81.4535 22.6879 81.4775 22.6399C81.5015 22.5679 81.5615 22.4839 81.6575 22.3879H81.6935C81.7175 22.3639 81.7295 22.3399 81.7295 22.3159C81.7295 22.2919 81.7295 22.2799 81.7295 22.2799C81.7775 22.2319 81.8135 22.1959 81.8375 22.1719C81.8855 22.1239 81.9215 22.0879 81.9455 22.0639C81.9695 22.0399 81.9815 22.0279 81.9815 22.0279C82.0055 22.0279 82.0175 22.0279 82.0175 22.0279C82.0415 21.9799 82.0655 21.9439 82.0895 21.9199C82.1375 21.8959 82.1735 21.8719 82.1975 21.8479L82.2695 21.7039C82.3175 21.6559 82.4855 21.5479 82.7735 21.3799C83.0615 21.2119 83.2775 21.1279 83.4215 21.1279H83.6015C83.6015 21.1279 83.6015 21.1399 83.6015 21.1639C83.6015 21.1639 83.6135 21.1639 83.6375 21.1639C83.6615 21.1639 83.6855 21.1639 83.7095 21.1639C83.7335 21.1399 83.7575 21.1279 83.7815 21.1279C83.7815 21.1279 83.8175 21.1639 83.8895 21.2359C83.9135 21.2599 83.9375 21.2719 83.9615 21.2719C83.9855 21.2479 84.0095 21.2359 84.0335 21.2359C84.0575 21.2599 84.0695 21.2839 84.0695 21.3079C84.0695 21.3319 84.0815 21.3439 84.1055 21.3439C84.1535 21.3439 84.1655 21.3439 84.1415 21.3439C84.1415 21.3199 84.1535 21.3079 84.1775 21.3079C84.2015 21.3079 84.2135 21.3319 84.2135 21.3799C84.2135 21.4279 84.2255 21.4759 84.2495 21.5239C84.2255 21.5959 84.2015 21.6799 84.1775 21.7759C84.1775 21.8479 84.1655 21.9079 84.1415 21.9559C83.9255 22.2439 83.7575 22.3879 83.6375 22.3879C83.6375 22.4119 83.6015 22.4599 83.5295 22.5319C83.4575 22.5319 83.3735 22.5559 83.2775 22.6039C83.1815 22.6519 83.0855 22.6999 82.9895 22.7479V22.8559C82.9895 22.9519 82.9535 22.9999 82.8815 22.9999C82.8335 22.9759 82.7855 23.0119 82.7375 23.1079V23.1439C82.7855 23.2159 82.8695 23.2519 82.9895 23.2519L83.2415 23.2879C83.2895 23.2879 83.3135 23.2759 83.3135 23.2519C83.3375 23.2279 83.3615 23.2159 83.3855 23.2159C83.4095 23.2159 83.4215 23.2279 83.4215 23.2519C83.4215 23.2519 83.4335 23.2519 83.4575 23.2519C83.5055 23.2519 83.5415 23.2399 83.5655 23.2159C83.5895 23.1919 83.6135 23.1799 83.6375 23.1799L83.9615 23.2159C83.8895 23.0959 83.8535 22.9999 83.8535 22.9279C83.8535 22.8079 83.9615 22.7359 84.1775 22.7119C84.5135 22.7119 84.8015 22.8319 85.0415 23.0719C85.0895 23.0479 85.1495 23.0479 85.2215 23.0719C85.2935 23.0959 85.3655 23.0959 85.4375 23.0719L85.6175 22.9639L85.6535 22.9999C85.7495 22.9519 85.8095 22.9279 85.8335 22.9279C85.8815 22.9279 85.8935 22.9399 85.8695 22.9639C85.8695 22.9639 85.8815 22.9639 85.9055 22.9639C85.9055 22.9639 85.9295 22.9399 85.9775 22.8919C86.0015 22.8919 86.0255 22.9039 86.0495 22.9279C86.0975 22.9279 86.1335 22.9159 86.1575 22.8919L86.2655 22.7839H86.6975L86.7335 22.7479C86.7815 22.7239 86.8415 22.6999 86.9135 22.6759C87.0095 22.6279 87.0935 22.6039 87.1655 22.6039C87.1655 22.5799 87.1895 22.5679 87.2375 22.5679C87.2855 22.5439 87.3215 22.5319 87.3455 22.5319H87.4175C87.5375 22.5319 87.5975 22.5679 87.5975 22.6399C87.5975 22.7119 87.5615 22.7719 87.4895 22.8199C87.4655 22.8439 87.4295 22.8559 87.3815 22.8559C87.3335 22.8319 87.2855 22.8319 87.2375 22.8559C87.1415 22.9519 87.0695 22.9999 87.0215 22.9999C86.9975 22.9999 86.9855 22.9999 86.9855 22.9999C86.9855 22.9759 86.9735 22.9639 86.9495 22.9639C86.9255 22.9639 86.8775 22.9999 86.8055 23.0719L86.5535 23.1079H86.5175C86.4695 23.1079 86.4455 23.1319 86.4455 23.1799C86.3495 23.1799 86.2535 23.1919 86.1575 23.2159C86.0615 23.2159 85.9655 23.2279 85.8695 23.2519L85.8335 23.2879C85.8095 23.2879 85.7855 23.2999 85.7615 23.3239C85.7375 23.3239 85.7015 23.3239 85.6535 23.3239C85.6055 23.3479 85.4735 23.3599 85.2575 23.3599C85.4015 23.5519 85.4975 23.7319 85.5455 23.8999C85.5935 24.0199 85.6295 24.2119 85.6535 24.4759C85.7015 24.7159 85.7135 24.8959 85.6895 25.0159C85.6895 25.0879 85.6655 25.1119 85.6175 25.0879C85.5695 25.0399 85.5455 25.0399 85.5455 25.0879C85.5455 25.1599 85.5695 25.2079 85.6175 25.2319C85.6895 25.2319 85.7255 25.2919 85.7255 25.4119C85.7255 25.4839 85.7135 25.5799 85.6895 25.6999C85.6655 25.7959 85.6415 25.9039 85.6175 26.0239C85.5935 26.1679 85.5575 26.3239 85.5095 26.4919C85.4855 26.6359 85.4255 26.7799 85.3295 26.9239L85.2215 27.1039V27.3199C85.2215 27.5119 85.1615 27.6439 85.0415 27.7159C84.9455 27.7879 84.8735 27.8719 84.8255 27.9679C84.7775 28.1119 84.7415 28.2079 84.7175 28.2559C84.7175 28.3039 84.6695 28.3999 84.5735 28.5439C84.2615 29.0239 83.8895 29.4799 83.4575 29.9119C83.0255 30.3439 82.6055 30.7399 82.1975 31.0999C81.8375 31.4119 81.3455 31.6999 80.7215 31.9639C80.1215 32.2039 79.5335 32.3239 78.9575 32.3239ZM79.3175 31.6759C79.3895 31.6759 79.5335 31.6639 79.7495 31.6399C79.9655 31.5919 80.1935 31.4839 80.4335 31.3159C80.4815 31.2919 80.5295 31.3039 80.5775 31.3519C80.6255 31.3999 80.6735 31.4119 80.7215 31.3879C80.8415 31.3399 80.8895 31.3039 80.8655 31.2799C80.8415 31.2559 80.8775 31.2319 80.9735 31.2079H81.0095C81.1535 31.2079 81.2135 31.1959 81.1895 31.1719C81.1895 31.1239 81.2015 31.0639 81.2255 30.9919C81.2255 30.9199 81.2615 30.8599 81.3335 30.8119C81.4055 30.7639 81.4655 30.7279 81.5135 30.7039C81.7775 30.4879 82.1015 30.1279 82.4855 29.6239C82.8695 29.0959 83.2535 28.5679 83.6375 28.0399C83.6615 27.9919 83.6975 27.9799 83.7455 28.0039C83.7935 28.0279 83.8295 28.0279 83.8535 28.0039C83.8775 27.9799 83.8895 27.9079 83.8895 27.7879C83.8895 27.7159 83.9255 27.6079 83.9975 27.4639C84.0695 27.2959 84.1415 27.1639 84.2135 27.0679C84.2375 26.9959 84.2855 26.8639 84.3575 26.6719C84.4295 26.4559 84.4895 26.2639 84.5375 26.0959C84.6095 25.9039 84.6215 25.8079 84.5735 25.8079C84.5255 25.7839 84.5015 25.7599 84.5015 25.7359C84.5015 25.6879 84.5735 25.6399 84.7175 25.5919C84.8615 25.5439 84.8495 25.5079 84.6815 25.4839C84.6335 25.4599 84.6455 25.4119 84.7175 25.3399C84.7895 25.2679 84.7535 25.2199 84.6095 25.1959C84.4895 25.1719 84.4415 25.1359 84.4655 25.0879C84.5135 25.0399 84.5495 25.0039 84.5735 24.9799C84.6455 24.9079 84.6815 24.8359 84.6815 24.7639C84.6815 24.5479 84.6215 24.3319 84.5015 24.1159C84.4055 23.8999 84.2975 23.7079 84.1775 23.5399C84.0335 23.6359 83.9615 23.6839 83.9615 23.6839C83.9375 23.6839 83.9255 23.6839 83.9255 23.6839C83.9255 23.6599 83.9015 23.6479 83.8535 23.6479C83.8295 23.6479 83.8175 23.6479 83.8175 23.6479C83.8175 23.6239 83.8055 23.6119 83.7815 23.6119C83.7575 23.6119 83.7335 23.6239 83.7095 23.6479C83.6855 23.6719 83.6735 23.6839 83.6735 23.6839C83.6495 23.7079 83.6015 23.7199 83.5295 23.7199C83.4815 23.7199 83.4455 23.7199 83.4215 23.7199C83.3975 23.7199 83.3735 23.7079 83.3495 23.6839C83.3495 23.6599 83.3375 23.6479 83.3135 23.6479C83.2895 23.6479 83.2535 23.6719 83.2055 23.7199C83.1815 23.7679 83.1455 23.7919 83.0975 23.7919C83.0735 23.7919 83.0615 23.7799 83.0615 23.7559C83.0615 23.7319 83.0375 23.7199 82.9895 23.7199C82.9655 23.7199 82.9415 23.7319 82.9175 23.7559C82.9175 23.7799 82.9055 23.7919 82.8815 23.7919C82.8575 23.7919 82.8095 23.7559 82.7375 23.6839H82.7015C82.7015 23.8279 82.6655 23.8999 82.5935 23.8999C82.5695 23.8999 82.5335 23.8759 82.4855 23.8279C82.2215 23.9959 81.7775 24.3919 81.1535 25.0159C80.5295 25.6159 79.9775 26.3119 79.4975 27.1039C79.4015 27.2959 79.2815 27.5239 79.1375 27.7879C79.0175 28.0519 78.9095 28.3519 78.8135 28.6879C78.7895 28.8319 78.7175 28.9399 78.5975 29.0119C78.5015 29.0839 78.4295 29.1679 78.3815 29.2639C78.3575 29.3599 78.3695 29.4199 78.4175 29.4439C78.4655 29.4679 78.5015 29.5039 78.5255 29.5519C78.5255 29.6479 78.5015 29.7799 78.4535 29.9479C78.4295 30.1159 78.4175 30.2719 78.4175 30.4159C78.4175 30.8719 78.5015 31.1959 78.6695 31.3879C78.8615 31.5799 79.0775 31.6759 79.3175 31.6759Z" fill="white"/>
<path d="M60.55 34.6638C60.262 34.6638 59.962 34.6278 59.65 34.5558C59.362 34.5078 59.062 34.4118 58.75 34.2678C58.582 34.0278 58.354 33.9078 58.066 33.9078C57.898 33.7158 57.718 33.5838 57.526 33.5118C57.382 33.4158 57.226 33.2718 57.058 33.0798C56.914 32.8878 56.782 32.7798 56.662 32.7558C56.398 32.4438 56.146 32.1198 55.906 31.7838C55.666 31.4478 55.45 31.0998 55.258 30.7398V30.6678C55.258 30.4998 55.198 30.3678 55.078 30.2718C54.982 30.1758 54.886 30.0558 54.79 29.9118C54.694 29.7438 54.67 29.5758 54.718 29.4078C54.766 29.2158 54.694 29.0478 54.502 28.9038C54.43 28.6878 54.382 28.4478 54.358 28.1838C54.358 27.9198 54.298 27.7038 54.178 27.5358C54.13 27.4398 54.106 27.3798 54.106 27.3558C54.106 27.2598 54.13 27.1758 54.178 27.1038C54.226 27.0318 54.262 26.9478 54.286 26.8518C54.166 26.8278 54.106 26.7318 54.106 26.5638V26.4558C54.106 26.1918 54.214 25.9878 54.43 25.8438C54.646 25.6998 54.874 25.6278 55.114 25.6278C55.498 25.6278 55.726 25.7718 55.798 26.0598L55.906 26.4558C55.81 26.5758 55.762 26.6718 55.762 26.7438C55.762 26.8158 55.846 26.9358 56.014 27.1038C56.038 27.1998 56.05 27.3318 56.05 27.4998C56.578 28.3158 57.286 29.0478 58.174 29.6958L58.21 29.7678C58.306 29.8398 58.39 29.8998 58.462 29.9478C58.534 29.9718 58.618 30.0078 58.714 30.0558C58.978 30.2238 59.122 30.3558 59.146 30.4518C59.194 30.5478 59.398 30.5958 59.758 30.5958C59.83 30.5958 59.878 30.6558 59.902 30.7758C59.95 30.8958 60.01 30.9798 60.082 31.0278C60.154 31.0518 60.238 31.0518 60.334 31.0278C60.43 30.9798 60.514 30.9798 60.586 31.0278C60.634 31.0518 60.67 31.0878 60.694 31.1358C60.742 31.1598 60.778 31.1838 60.802 31.2078C60.85 31.2318 61.066 31.3158 61.45 31.4598C61.834 31.5798 62.218 31.7118 62.602 31.8558C63.01 31.9758 63.262 32.0478 63.358 32.0718C63.55 31.8558 63.754 31.6758 63.97 31.5318C64.186 31.3638 64.378 31.1598 64.546 30.9198C64.714 30.8718 64.81 30.7998 64.834 30.7038C64.858 30.5838 64.882 30.4518 64.906 30.3078C65.026 30.1398 65.134 29.9478 65.23 29.7318C65.326 29.5158 65.434 29.3358 65.554 29.1918C65.818 28.8798 65.974 28.5438 66.022 28.1838C66.094 27.8238 66.226 27.5238 66.418 27.2838C66.466 27.2358 66.538 27.1878 66.634 27.1398C66.754 27.0918 66.814 27.0438 66.814 26.9958V26.9598C66.814 26.7198 66.862 26.4798 66.958 26.2398C67.078 25.9758 67.186 25.7238 67.282 25.4838C67.378 25.3878 67.438 25.2798 67.462 25.1598C67.51 25.0158 67.57 24.8958 67.642 24.7998C67.738 24.7038 67.81 24.6198 67.858 24.5478C67.93 24.4758 67.954 24.3678 67.93 24.2238L68.002 23.7198C68.002 23.5998 68.026 23.4558 68.074 23.2878C68.146 23.0958 68.194 22.9398 68.218 22.8198C68.266 22.5798 68.338 22.2918 68.434 21.9558C68.53 21.5958 68.626 21.3198 68.722 21.1278C68.89 20.8158 69.01 20.4918 69.082 20.1558C69.154 19.7958 69.238 19.4598 69.334 19.1478C69.502 19.0518 69.586 18.8958 69.586 18.6798C69.634 18.5838 69.694 18.3558 69.766 17.9958C69.838 17.6358 69.874 17.4078 69.874 17.3118C69.802 17.3118 69.718 17.2878 69.622 17.2398C69.55 16.9998 69.574 16.7238 69.694 16.4118C69.814 16.0758 69.97 15.7518 70.162 15.4398C70.354 15.1278 70.498 14.8758 70.594 14.6838C70.762 14.4198 70.966 14.1918 71.206 13.9998C71.446 13.7838 71.734 13.6758 72.07 13.6758C72.19 13.6758 72.322 13.6878 72.466 13.7118C72.61 13.7118 72.718 13.7598 72.79 13.8558C73.102 13.9758 73.258 14.1558 73.258 14.3958C73.258 14.5638 73.198 14.7678 73.078 15.0078C72.958 15.2238 72.874 15.4398 72.826 15.6558C72.538 15.7758 72.37 16.0758 72.322 16.5558C72.298 17.0118 72.25 17.3718 72.178 17.6358C72.154 17.7558 72.106 17.8518 72.034 17.9238C71.962 17.9958 71.986 18.1038 72.106 18.2478V18.4638L71.998 18.5358L72.142 18.7878C72.142 18.8598 72.142 19.0158 72.142 19.2558C72.166 19.4718 72.19 19.6878 72.214 19.9038C72.238 20.0958 72.238 20.2038 72.214 20.2278C72.19 20.2758 72.142 20.2998 72.07 20.2998C71.926 20.2998 71.83 20.2398 71.782 20.1198C71.71 19.9278 71.674 19.7118 71.674 19.4718C71.698 19.2318 71.638 19.0158 71.494 18.8238C71.47 18.7518 71.458 18.6798 71.458 18.6078C71.458 18.5358 71.458 18.4878 71.458 18.4638C71.458 18.3678 71.458 18.2958 71.458 18.2478C71.482 18.1998 71.494 18.1638 71.494 18.1398C71.494 18.0918 71.398 17.9238 71.206 17.6358V17.2758C70.942 17.6118 70.75 17.9478 70.63 18.2838C70.51 18.3798 70.438 18.4998 70.414 18.6438C70.39 18.7878 70.354 18.9198 70.306 19.0398C70.066 19.6638 69.826 20.2878 69.586 20.9118C69.37 21.5358 69.154 22.1598 68.938 22.7838C68.77 22.8798 68.686 23.0118 68.686 23.1798C68.686 23.3238 68.662 23.4678 68.614 23.6118L67.93 25.4838C67.762 25.5318 67.678 25.6158 67.678 25.7358C67.702 25.8318 67.714 25.9398 67.714 26.0598C67.714 26.2278 67.666 26.3838 67.57 26.5278C67.498 26.6478 67.438 26.7798 67.39 26.9238C67.054 27.8598 66.646 28.8078 66.166 29.7678C65.71 30.7278 65.17 31.6038 64.546 32.3958C64.882 32.4678 65.206 32.5278 65.518 32.5758C65.83 32.6478 66.142 32.7078 66.454 32.7558C66.766 32.8038 67.15 32.8518 67.606 32.8998C68.086 32.9478 68.446 32.9958 68.686 33.0438C68.95 33.0918 69.238 33.1278 69.55 33.1518C69.862 33.1758 70.15 33.1878 70.414 33.1878H70.666C70.762 33.1878 70.834 33.1878 70.882 33.1878C70.954 33.2118 71.05 33.2478 71.17 33.2958C71.218 33.3198 71.266 33.3078 71.314 33.2598C71.362 33.2358 71.41 33.2238 71.458 33.2238C71.578 33.1998 71.698 33.1878 71.818 33.1878C71.938 33.2118 72.046 33.2238 72.142 33.2238C72.19 33.1998 72.25 33.1878 72.322 33.1878C72.418 33.1878 72.502 33.1998 72.574 33.2238C72.67 33.2718 72.754 33.2958 72.826 33.2958C72.946 33.2958 73.042 33.2718 73.114 33.2238C73.186 33.1998 73.27 33.1878 73.366 33.1878C73.486 33.2838 73.594 33.3318 73.69 33.3318C73.786 33.3318 73.882 33.2718 73.978 33.1518C74.242 33.1278 74.554 33.0798 74.914 33.0078C75.298 32.9358 75.454 32.6958 75.382 32.2878C75.358 32.0958 75.322 31.9758 75.274 31.9278C75.226 31.8798 75.142 31.7958 75.022 31.6758C74.926 31.6038 74.842 31.5078 74.77 31.3878C74.698 31.2678 74.602 31.1958 74.482 31.1718C74.434 31.1238 74.41 31.0518 74.41 30.9558C74.41 30.8118 74.494 30.7398 74.662 30.7398C74.758 30.7398 74.854 30.7878 74.95 30.8838C75.046 30.9318 75.106 31.0038 75.13 31.0998C75.178 31.1958 75.25 31.2798 75.346 31.3518C75.394 31.4478 75.478 31.5198 75.598 31.5678C75.718 31.6158 75.826 31.6878 75.922 31.7838C76.186 32.1678 76.318 32.5158 76.318 32.8278C76.318 33.2838 76.114 33.6678 75.706 33.9798C75.298 34.2918 74.818 34.4598 74.266 34.4838C74.218 34.4358 74.146 34.4118 74.05 34.4118C73.954 34.4118 73.87 34.4238 73.798 34.4478C73.75 34.4718 73.678 34.4838 73.582 34.4838C73.126 34.4598 72.658 34.4118 72.178 34.3398C71.698 34.2678 71.23 34.2078 70.774 34.1598C70.726 34.1598 70.678 34.1478 70.63 34.1238C70.582 34.1238 70.534 34.1238 70.486 34.1238C70.318 34.0038 70.102 33.9438 69.838 33.9438C69.598 33.9438 69.382 33.9198 69.19 33.8718C69.118 33.8478 68.95 33.8118 68.686 33.7638C68.446 33.7158 68.206 33.6678 67.966 33.6198C67.75 33.5718 67.618 33.5598 67.57 33.5838C67.306 33.5358 67.03 33.4638 66.742 33.3678C66.478 33.2958 66.214 33.2478 65.95 33.2238C65.662 33.1758 65.362 33.1038 65.05 33.0078C64.762 32.9358 64.474 32.8638 64.186 32.7918C63.658 33.3678 63.094 33.8238 62.494 34.1598C61.894 34.4958 61.246 34.6638 60.55 34.6638ZM60.298 34.0518C60.898 34.0518 61.402 33.8958 61.81 33.5838C62.242 33.2718 62.65 32.8998 63.034 32.4678C62.794 32.4198 62.554 32.3598 62.314 32.2878C62.074 32.2158 61.834 32.1318 61.594 32.0358C61.378 31.9398 61.186 31.8678 61.018 31.8198C60.874 31.7478 60.682 31.6878 60.442 31.6398C60.346 31.6158 60.238 31.5798 60.118 31.5318C59.998 31.4838 59.878 31.4478 59.758 31.4238C59.59 31.3518 59.434 31.2558 59.29 31.1358C59.146 30.9918 58.978 30.9438 58.786 30.9918C58.666 30.9438 58.534 30.8958 58.39 30.8478C58.27 30.7998 58.15 30.7398 58.03 30.6678C57.91 30.5718 57.826 30.4878 57.778 30.4158C57.73 30.3198 57.61 30.2958 57.418 30.3438L57.13 30.1998C57.034 30.1038 56.95 30.0078 56.878 29.9118C56.83 29.8158 56.722 29.7678 56.554 29.7678C56.362 29.7678 56.146 29.6598 55.906 29.4438C55.666 29.2038 55.486 28.9998 55.366 28.8318C55.486 29.1438 55.606 29.4438 55.726 29.7318C55.846 30.0198 55.966 30.3078 56.086 30.5958C56.134 30.7638 56.194 30.9078 56.266 31.0278C56.362 31.1238 56.386 31.2558 56.338 31.4238C56.338 31.4718 56.398 31.5318 56.518 31.6038C56.638 31.6518 56.746 31.7478 56.842 31.8918C56.89 32.0838 56.95 32.1918 57.022 32.2158C57.094 32.2398 57.166 32.3118 57.238 32.4318C57.43 32.6478 57.538 32.8158 57.562 32.9358C57.586 33.0558 57.802 33.1398 58.21 33.1878L58.534 33.4038C58.63 33.5718 58.738 33.6558 58.858 33.6558C58.978 33.6798 59.11 33.7158 59.254 33.7638C59.446 33.8118 59.614 33.8718 59.758 33.9438C59.926 34.0158 60.106 34.0518 60.298 34.0518Z" fill="white"/>
<path d="M75.4216 56.2317C75.3736 56.0877 75.3496 55.9557 75.3496 55.8357C75.3496 55.7637 75.3736 55.6317 75.4216 55.4397C75.4456 55.3677 75.5176 55.1637 75.6376 54.8277C75.7336 54.5157 75.8296 54.1917 75.9256 53.8557C76.0456 53.5197 76.1296 53.3277 76.1776 53.2797C76.2016 53.2797 76.2856 53.0997 76.4296 52.7397C76.5976 52.3557 76.7776 51.9597 76.9696 51.5517C77.1616 51.1197 77.3056 50.8437 77.4016 50.7237C77.5216 50.4837 77.7016 50.1597 77.9416 49.7517C78.1816 49.3437 78.4216 48.8757 78.6616 48.3477V48.2037C78.6616 48.0357 78.6976 47.8797 78.7696 47.7357C78.8416 47.5437 78.9256 47.4237 79.0216 47.3757C79.1176 47.3037 79.2016 47.1597 79.2736 46.9437C79.3216 46.8237 79.3576 46.6917 79.3816 46.5477C79.4296 46.3797 79.4776 46.2357 79.5256 46.1157C79.2616 46.2117 79.1296 46.2957 79.1296 46.3677C79.1296 46.4637 78.9976 46.5597 78.7336 46.6557C78.4696 46.7517 78.3136 46.8117 78.2656 46.8357L77.0056 47.2317C76.9336 47.2557 76.8616 47.2077 76.7896 47.0877C76.7416 46.9437 76.7176 46.7877 76.7176 46.6197C76.7176 46.3797 76.7656 46.1877 76.8616 46.0437C76.8616 46.0197 76.8856 46.0077 76.9336 46.0077L77.6896 45.7917C77.8576 45.7437 78.0736 45.7077 78.3376 45.6837C78.6016 45.6357 78.8296 45.5637 79.0216 45.4677L80.0656 45.3237V45.1437C80.0656 44.9997 80.1136 44.8677 80.2096 44.7477C80.3296 44.6037 80.4376 44.4477 80.5336 44.2797C80.5816 44.1837 80.6536 44.1357 80.7496 44.1357H80.8576C80.9056 44.1357 80.9296 44.0757 80.9296 43.9557C80.9296 43.9077 80.9296 43.8597 80.9296 43.8117C80.9296 43.7397 80.9176 43.6557 80.8936 43.5597C80.8936 43.3677 80.9776 43.2597 81.1456 43.2357H81.2536C81.3256 42.9237 81.3856 42.6957 81.4336 42.5517C81.5056 42.4077 81.5896 42.2877 81.6856 42.1917L81.9736 41.9037C82.2856 41.5917 82.5016 41.2677 82.6216 40.9317C82.6696 40.8357 82.7296 40.7517 82.8016 40.6797C82.8976 40.6077 82.9816 40.5237 83.0536 40.4277C83.1016 40.3797 83.1136 40.3077 83.0896 40.2117C83.0896 40.1157 83.1016 40.0437 83.1256 39.9957C83.3176 39.7077 83.5456 39.4197 83.8096 39.1317C84.0736 38.8197 84.3256 38.5437 84.5656 38.3037C84.6376 38.1837 84.7216 38.0637 84.8176 37.9437C84.9136 37.8237 85.0096 37.7037 85.1056 37.5837C85.2496 37.4157 85.4056 37.2957 85.5736 37.2237C85.7416 37.1517 85.9096 37.0437 86.0776 36.8997C86.1256 36.8517 86.1496 36.7797 86.1496 36.6837C86.1496 36.5637 86.1736 36.4797 86.2216 36.4317C86.7736 35.9757 87.3616 35.5797 87.9856 35.2437C88.6096 34.8837 89.2096 34.5957 89.7856 34.3797C90.3616 34.1637 90.8296 34.0557 91.1896 34.0557C91.3816 34.0557 91.5616 34.0677 91.7296 34.0917C91.8976 34.1157 92.0776 34.1517 92.2696 34.1997H92.3416C92.4616 34.1997 92.5696 34.2237 92.6656 34.2717C92.7856 34.3197 92.8936 34.3677 92.9896 34.4157C93.1096 34.4157 93.2416 34.4397 93.3856 34.4877C93.5056 34.5357 93.5656 34.6077 93.5656 34.7037C93.5896 34.7997 93.5776 34.8717 93.5296 34.9197C93.5056 34.9437 93.4576 34.9437 93.3856 34.9197C93.3376 34.8957 93.2896 34.8837 93.2416 34.8837C93.1936 34.8837 93.1456 34.8597 93.0976 34.8117C93.0496 34.7637 93.0016 34.7277 92.9536 34.7037C92.8816 34.7037 92.7976 34.7157 92.7016 34.7397C92.6056 34.7637 92.5096 34.7757 92.4136 34.7757C92.1496 34.7757 91.9816 34.7517 91.9096 34.7037C91.8616 34.6317 91.7296 34.6197 91.5136 34.6677C91.4656 34.6677 91.3816 34.6797 91.2616 34.7037C91.1416 34.7277 91.0576 34.7397 91.0096 34.7397C90.1456 34.9557 89.3896 35.3157 88.7416 35.8197C88.1176 36.2997 87.5536 36.8397 87.0496 37.4397C86.5456 38.0397 86.0656 38.6157 85.6096 39.1677C85.5136 39.3837 85.4056 39.5877 85.2856 39.7797C85.1896 39.9477 85.0816 40.0917 84.9616 40.2117C84.9376 40.2357 84.9136 40.2237 84.8896 40.1757C84.8896 40.1277 84.8656 40.1277 84.8176 40.1757C84.7696 40.2477 84.7216 40.3677 84.6736 40.5357C84.6256 40.6797 84.5776 40.7997 84.5296 40.8957C84.5056 40.9197 84.4696 40.9077 84.4216 40.8597C84.3976 40.8117 84.3616 40.8117 84.3136 40.8597C84.2896 40.8837 84.2656 40.9797 84.2416 41.1477C84.2176 41.2917 84.1816 41.3877 84.1336 41.4357C83.8216 41.8197 83.4976 42.1917 83.1616 42.5517C82.8256 42.9117 82.4896 43.3317 82.1536 43.8117L81.3256 45.0717C81.4216 45.0717 81.5056 45.0717 81.5776 45.0717C81.6736 45.0717 81.7576 45.0597 81.8296 45.0357C81.9016 45.0117 81.9256 45.0237 81.9016 45.0717C81.9016 45.0957 81.9376 45.0957 82.0096 45.0717C82.1296 45.0717 82.2136 45.0597 82.2616 45.0357C82.3096 44.9877 82.3936 44.9517 82.5136 44.9277C82.7056 44.9037 82.9216 44.8917 83.1616 44.8917C83.4256 44.8677 83.6296 44.8557 83.7736 44.8557C83.8696 44.8557 83.9896 44.8557 84.1336 44.8557C84.2776 44.8557 84.3856 44.8677 84.4576 44.8917C84.5056 44.8917 84.5176 44.9157 84.4936 44.9637C84.4936 44.9877 84.5056 44.9997 84.5296 44.9997C84.5776 44.9997 84.6136 44.9877 84.6376 44.9637C84.6856 44.9397 84.7336 44.9277 84.7816 44.9277C84.8056 44.9037 84.8416 44.9037 84.8896 44.9277C84.9376 44.9277 84.9736 44.9277 84.9976 44.9277L85.3936 45.0357C85.5136 45.0597 85.5856 45.1317 85.6096 45.2517C85.6336 45.3717 85.5976 45.4317 85.5016 45.4317C85.4296 45.4317 85.3696 45.4197 85.3216 45.3957C85.2736 45.3717 85.2256 45.3597 85.1776 45.3597H84.2776C84.1096 45.3597 83.9536 45.3597 83.8096 45.3597C83.6656 45.3597 83.5216 45.3717 83.3776 45.3957C83.3296 45.4197 83.3056 45.3957 83.3056 45.3237C83.3296 45.2517 83.3176 45.2157 83.2696 45.2157C83.2456 45.2157 83.2096 45.2517 83.1616 45.3237C83.1136 45.3717 83.0776 45.3957 83.0536 45.3957L82.8736 45.5037C82.5376 45.5757 82.1776 45.6597 81.7936 45.7557C81.4336 45.8277 81.0736 45.9237 80.7136 46.0437L78.7336 49.3197C78.5656 49.6077 78.4336 49.8717 78.3376 50.1117C78.2656 50.3277 78.1816 50.5317 78.0856 50.7237C78.0376 50.7957 78.0136 50.8917 78.0136 51.0117C78.0136 51.2037 78.1216 51.2997 78.3376 51.2997C78.4096 51.2997 78.5416 51.2517 78.7336 51.1557C78.8296 51.1077 78.9136 51.0717 78.9856 51.0477C79.0816 51.0237 79.1776 50.9877 79.2736 50.9397C79.2976 50.9397 79.4416 50.8557 79.7056 50.6877C79.9696 50.5197 80.2456 50.3157 80.5336 50.0757L80.8216 49.8237L81.2536 49.4997C81.3256 49.4277 81.3856 49.3917 81.4336 49.3917C81.5296 49.3917 81.6016 49.4397 81.6496 49.5357C81.6976 49.6317 81.6856 49.7277 81.6136 49.8237C81.5656 49.8957 81.4816 49.9557 81.3616 50.0037C81.2416 50.0517 81.1216 50.1357 81.0016 50.2557C80.7856 50.4237 80.5456 50.6037 80.2816 50.7957C80.0416 50.9637 79.8016 51.1197 79.5616 51.2637C79.4656 51.3357 79.3576 51.4077 79.2376 51.4797C79.1416 51.5517 79.0456 51.6357 78.9496 51.7317L78.6256 52.2357C78.6016 52.2837 78.5656 52.3077 78.5176 52.3077C78.4936 52.2837 78.4216 52.3197 78.3016 52.4157C78.2776 52.4397 78.2656 52.4877 78.2656 52.5597C78.2656 52.6077 78.2416 52.6557 78.1936 52.7037C78.1696 52.7757 78.1336 52.8357 78.0856 52.8837C78.0376 52.9077 78.0136 52.9437 78.0136 52.9917C77.9896 53.0637 77.9416 53.1117 77.8696 53.1357C77.8216 53.1357 77.7736 53.1597 77.7256 53.2077C77.7016 53.2317 77.6896 53.2677 77.6896 53.3157C77.7136 53.3637 77.7136 53.4117 77.6896 53.4597L77.2936 54.2157C77.2456 54.3597 77.1736 54.4437 77.0776 54.4677C77.0536 54.4917 77.0176 54.4797 76.9696 54.4317C76.9216 54.4077 76.8856 54.4197 76.8616 54.4677C76.8616 54.5157 76.8736 54.5877 76.8976 54.6837C76.9456 54.7797 76.9336 54.8517 76.8616 54.8997C76.7896 54.9477 76.7176 55.0437 76.6456 55.1877C76.5736 55.3557 76.5136 55.4757 76.4656 55.5477C76.3936 55.6437 76.3096 55.7037 76.2136 55.7277C76.1416 55.7517 76.0696 55.8117 75.9976 55.9077C75.9736 55.9317 75.8896 56.0277 75.7456 56.1957C75.6016 56.3877 75.4936 56.3997 75.4216 56.2317Z" fill="white"/>
<path d="M68.1372 54.3239C67.6092 54.3239 67.1412 54.1799 66.7332 53.8919C66.3492 53.5799 66.1572 53.0519 66.1572 52.3079C66.1572 52.0439 66.2052 51.6719 66.3012 51.1919C66.3972 50.7119 66.5532 50.2079 66.7692 49.6799C66.8892 49.3919 67.0212 49.1159 67.1652 48.8519C67.3332 48.5879 67.4892 48.3359 67.6332 48.0959C67.6572 48.0719 67.7292 48.0959 67.8492 48.1679C67.9932 48.2399 68.0772 48.2639 68.1012 48.2399C68.1252 48.1919 68.0892 48.1439 67.9932 48.0959C67.9212 48.0239 67.8972 47.9759 67.9212 47.9519C67.9692 47.9039 68.0052 47.8799 68.0292 47.8799C68.0772 47.8559 68.1132 47.8199 68.1372 47.7719C68.1612 47.7239 68.1732 47.6759 68.1732 47.6279C68.1732 47.5559 68.1372 47.4959 68.0652 47.4479C68.0172 47.3999 68.0412 47.3279 68.1372 47.2319C68.2572 47.0639 68.3892 46.9079 68.5332 46.7639C68.7012 46.5959 68.8452 46.4519 68.9652 46.3319C69.0132 46.2839 69.0732 46.2119 69.1452 46.1159C69.2172 45.9959 69.2652 45.9239 69.2892 45.8999L69.3612 45.8279C69.3852 45.8039 69.4092 45.7799 69.4332 45.7559C69.4332 45.7319 69.4332 45.7199 69.4332 45.7199C69.4572 45.7199 69.4692 45.7079 69.4692 45.6839C69.4692 45.6119 69.3972 45.5399 69.2532 45.4679C69.1092 45.3959 69.0372 45.3479 69.0372 45.3239C69.0372 45.2999 69.0252 45.2759 69.0012 45.2519C68.9772 45.2279 68.9532 45.1919 68.9292 45.1439C68.9532 45.1439 68.9772 45.1199 69.0012 45.0719C69.0492 44.9999 69.0852 44.9639 69.1092 44.9639C69.1332 44.9639 69.1812 44.9879 69.2532 45.0359C69.3252 45.0599 69.3732 45.0719 69.3972 45.0719C69.4212 45.0719 69.4332 45.0599 69.4332 45.0359C69.4572 45.0119 69.4812 44.9999 69.5052 44.9999C69.5532 44.9999 69.6612 45.0359 69.8292 45.1079C69.9972 45.1559 70.0932 45.1799 70.1172 45.1799C70.1412 45.1799 70.2132 45.1199 70.3332 44.9999C70.4532 44.8799 70.5252 44.8079 70.5492 44.7839C70.5972 44.7359 70.6332 44.6879 70.6572 44.6399C70.6812 44.5679 70.7412 44.4839 70.8372 44.3879H70.8732C70.8972 44.3639 70.9092 44.3399 70.9092 44.3159C70.9092 44.2919 70.9092 44.2799 70.9092 44.2799C70.9572 44.2319 70.9932 44.1959 71.0172 44.1719C71.0652 44.1239 71.1012 44.0879 71.1252 44.0639C71.1492 44.0399 71.1612 44.0279 71.1612 44.0279C71.1852 44.0279 71.1972 44.0279 71.1972 44.0279C71.2212 43.9799 71.2452 43.9439 71.2692 43.9199C71.3172 43.8959 71.3532 43.8719 71.3772 43.8479L71.4492 43.7039C71.4972 43.6559 71.6652 43.5479 71.9532 43.3799C72.2412 43.2119 72.4572 43.1279 72.6012 43.1279H72.7812C72.7812 43.1279 72.7812 43.1399 72.7812 43.1639C72.7812 43.1639 72.7932 43.1639 72.8172 43.1639C72.8412 43.1639 72.8652 43.1639 72.8892 43.1639C72.9132 43.1399 72.9372 43.1279 72.9612 43.1279C72.9612 43.1279 72.9972 43.1639 73.0692 43.2359C73.0932 43.2599 73.1172 43.2719 73.1412 43.2719C73.1652 43.2479 73.1892 43.2359 73.2132 43.2359C73.2372 43.2599 73.2492 43.2839 73.2492 43.3079C73.2492 43.3319 73.2612 43.3439 73.2852 43.3439C73.3332 43.3439 73.3452 43.3439 73.3212 43.3439C73.3212 43.3199 73.3332 43.3079 73.3572 43.3079C73.3812 43.3079 73.3932 43.3319 73.3932 43.3799C73.3932 43.4279 73.4052 43.4759 73.4292 43.5239C73.4052 43.5959 73.3812 43.6799 73.3572 43.7759C73.3572 43.8479 73.3452 43.9079 73.3212 43.9559C73.1052 44.2439 72.9372 44.3879 72.8172 44.3879C72.8172 44.4119 72.7812 44.4599 72.7092 44.5319C72.6372 44.5319 72.5532 44.5559 72.4572 44.6039C72.3612 44.6519 72.2652 44.6999 72.1692 44.7479V44.8559C72.1692 44.9519 72.1332 44.9999 72.0612 44.9999C72.0132 44.9759 71.9652 45.0119 71.9172 45.1079V45.1439C71.9652 45.2159 72.0492 45.2519 72.1692 45.2519L72.4212 45.2879C72.4692 45.2879 72.4932 45.2759 72.4932 45.2519C72.5172 45.2279 72.5412 45.2159 72.5652 45.2159C72.5892 45.2159 72.6012 45.2279 72.6012 45.2519C72.6012 45.2519 72.6132 45.2519 72.6372 45.2519C72.6852 45.2519 72.7212 45.2399 72.7452 45.2159C72.7692 45.1919 72.7932 45.1799 72.8172 45.1799L73.1412 45.2159C73.0692 45.0959 73.0332 44.9999 73.0332 44.9279C73.0332 44.8079 73.1412 44.7359 73.3572 44.7119C73.6932 44.7119 73.9812 44.8319 74.2212 45.0719C74.2692 45.0479 74.3292 45.0479 74.4012 45.0719C74.4732 45.0959 74.5452 45.0959 74.6172 45.0719L74.7972 44.9639L74.8332 44.9999C74.9292 44.9519 74.9892 44.9279 75.0132 44.9279C75.0612 44.9279 75.0732 44.9399 75.0492 44.9639C75.0492 44.9639 75.0612 44.9639 75.0852 44.9639C75.0852 44.9639 75.1092 44.9399 75.1572 44.8919C75.1812 44.8919 75.2052 44.9039 75.2292 44.9279C75.2772 44.9279 75.3132 44.9159 75.3372 44.8919L75.4452 44.7839H75.8772L75.9132 44.7479C75.9612 44.7239 76.0212 44.6999 76.0932 44.6759C76.1892 44.6279 76.2732 44.6039 76.3452 44.6039C76.3452 44.5799 76.3692 44.5679 76.4172 44.5679C76.4652 44.5439 76.5012 44.5319 76.5252 44.5319H76.5972C76.7172 44.5319 76.7772 44.5679 76.7772 44.6399C76.7772 44.7119 76.7412 44.7719 76.6692 44.8199C76.6452 44.8439 76.6092 44.8559 76.5612 44.8559C76.5132 44.8319 76.4652 44.8319 76.4172 44.8559C76.3212 44.9519 76.2492 44.9999 76.2012 44.9999C76.1772 44.9999 76.1652 44.9999 76.1652 44.9999C76.1652 44.9759 76.1532 44.9639 76.1292 44.9639C76.1052 44.9639 76.0572 44.9999 75.9852 45.0719L75.7332 45.1079H75.6972C75.6492 45.1079 75.6252 45.1319 75.6252 45.1799C75.5292 45.1799 75.4332 45.1919 75.3372 45.2159C75.2412 45.2159 75.1452 45.2279 75.0492 45.2519L75.0132 45.2879C74.9892 45.2879 74.9652 45.2999 74.9412 45.3239C74.9172 45.3239 74.8812 45.3239 74.8332 45.3239C74.7852 45.3479 74.6532 45.3599 74.4372 45.3599C74.5812 45.5519 74.6772 45.7319 74.7252 45.8999C74.7732 46.0199 74.8092 46.2119 74.8332 46.4759C74.8812 46.7159 74.8932 46.8959 74.8692 47.0159C74.8692 47.0879 74.8452 47.1119 74.7972 47.0879C74.7492 47.0399 74.7252 47.0399 74.7252 47.0879C74.7252 47.1599 74.7492 47.2079 74.7972 47.2319C74.8692 47.2319 74.9052 47.2919 74.9052 47.4119C74.9052 47.4839 74.8932 47.5799 74.8692 47.6999C74.8452 47.7959 74.8212 47.9039 74.7972 48.0239C74.7732 48.1679 74.7372 48.3239 74.6892 48.4919C74.6652 48.6359 74.6052 48.7799 74.5092 48.9239L74.4012 49.1039V49.3199C74.4012 49.5119 74.3412 49.6439 74.2212 49.7159C74.1252 49.7879 74.0532 49.8719 74.0052 49.9679C73.9572 50.1119 73.9212 50.2079 73.8972 50.2559C73.8972 50.3039 73.8492 50.3999 73.7532 50.5439C73.4412 51.0239 73.0692 51.4799 72.6372 51.9119C72.2052 52.3439 71.7852 52.7399 71.3772 53.0999C71.0172 53.4119 70.5252 53.6999 69.9012 53.9639C69.3012 54.2039 68.7132 54.3239 68.1372 54.3239ZM68.4972 53.6759C68.5692 53.6759 68.7132 53.6639 68.9292 53.6399C69.1452 53.5919 69.3732 53.4839 69.6132 53.3159C69.6612 53.2919 69.7092 53.3039 69.7572 53.3519C69.8052 53.3999 69.8532 53.4119 69.9012 53.3879C70.0212 53.3399 70.0692 53.3039 70.0452 53.2799C70.0212 53.2559 70.0572 53.2319 70.1532 53.2079H70.1892C70.3332 53.2079 70.3932 53.1959 70.3692 53.1719C70.3692 53.1239 70.3812 53.0639 70.4052 52.9919C70.4052 52.9199 70.4412 52.8599 70.5132 52.8119C70.5852 52.7639 70.6452 52.7279 70.6932 52.7039C70.9572 52.4879 71.2812 52.1279 71.6652 51.6239C72.0492 51.0959 72.4332 50.5679 72.8172 50.0399C72.8412 49.9919 72.8772 49.9799 72.9252 50.0039C72.9732 50.0279 73.0092 50.0279 73.0332 50.0039C73.0572 49.9799 73.0692 49.9079 73.0692 49.7879C73.0692 49.7159 73.1052 49.6079 73.1772 49.4639C73.2492 49.2959 73.3212 49.1639 73.3932 49.0679C73.4172 48.9959 73.4652 48.8639 73.5372 48.6719C73.6092 48.4559 73.6692 48.2639 73.7172 48.0959C73.7892 47.9039 73.8012 47.8079 73.7532 47.8079C73.7052 47.7839 73.6812 47.7599 73.6812 47.7359C73.6812 47.6879 73.7532 47.6399 73.8972 47.5919C74.0412 47.5439 74.0292 47.5079 73.8612 47.4839C73.8132 47.4599 73.8252 47.4119 73.8972 47.3399C73.9692 47.2679 73.9332 47.2199 73.7892 47.1959C73.6692 47.1719 73.6212 47.1359 73.6452 47.0879C73.6932 47.0399 73.7292 47.0039 73.7532 46.9799C73.8252 46.9079 73.8612 46.8359 73.8612 46.7639C73.8612 46.5479 73.8012 46.3319 73.6812 46.1159C73.5852 45.8999 73.4772 45.7079 73.3572 45.5399C73.2132 45.6359 73.1412 45.6839 73.1412 45.6839C73.1172 45.6839 73.1052 45.6839 73.1052 45.6839C73.1052 45.6599 73.0812 45.6479 73.0332 45.6479C73.0092 45.6479 72.9972 45.6479 72.9972 45.6479C72.9972 45.6239 72.9852 45.6119 72.9612 45.6119C72.9372 45.6119 72.9132 45.6239 72.8892 45.6479C72.8652 45.6719 72.8532 45.6839 72.8532 45.6839C72.8292 45.7079 72.7812 45.7199 72.7092 45.7199C72.6612 45.7199 72.6252 45.7199 72.6012 45.7199C72.5772 45.7199 72.5532 45.7079 72.5292 45.6839C72.5292 45.6599 72.5172 45.6479 72.4932 45.6479C72.4692 45.6479 72.4332 45.6719 72.3852 45.7199C72.3612 45.7679 72.3252 45.7919 72.2772 45.7919C72.2532 45.7919 72.2412 45.7799 72.2412 45.7559C72.2412 45.7319 72.2172 45.7199 72.1692 45.7199C72.1452 45.7199 72.1212 45.7319 72.0972 45.7559C72.0972 45.7799 72.0852 45.7919 72.0612 45.7919C72.0372 45.7919 71.9892 45.7559 71.9172 45.6839H71.8812C71.8812 45.8279 71.8452 45.8999 71.7732 45.8999C71.7492 45.8999 71.7132 45.8759 71.6652 45.8279C71.4012 45.9959 70.9572 46.3919 70.3332 47.0159C69.7092 47.6159 69.1572 48.3119 68.6772 49.1039C68.5812 49.2959 68.4612 49.5239 68.3172 49.7879C68.1972 50.0519 68.0892 50.3519 67.9932 50.6879C67.9692 50.8319 67.8972 50.9399 67.7772 51.0119C67.6812 51.0839 67.6092 51.1679 67.5612 51.2639C67.5372 51.3599 67.5492 51.4199 67.5972 51.4439C67.6452 51.4679 67.6812 51.5039 67.7052 51.5519C67.7052 51.6479 67.6812 51.7799 67.6332 51.9479C67.6092 52.1159 67.5972 52.2719 67.5972 52.4159C67.5972 52.8719 67.6812 53.1959 67.8492 53.3879C68.0412 53.5799 68.2572 53.6759 68.4972 53.6759Z" fill="white"/>
</svg>
