<svg width="27" height="18" viewBox="0 0 27 18" fill="none" xmlns="http://www.w3.org/2000/svg">
<path d="M20 7.25041C18.5 11.8216 15.4183 15.25 11 15.25C6.58172 15.25 3 11.8216 2 7.25041C6 7.25041 6.58172 7.25 11 7.25C15.4183 7.25 15 7.25 20 7.25041Z" fill="#BF9D81"/>
<path fill-rule="evenodd" clip-rule="evenodd" d="M1.71595 0C1.70905 0.0158626 1.70227 0.0317963 1.6956 0.0478001H0.2934C0.1314 0.0478001 0 0.1789 0 0.3412V5.539C0 9.4477 2.0847 12.8788 5.2008 14.7787C2.1642 15.2068 2.1636 15.8209 2.1636 16.0612C2.1636 17.6686 10.5633 17.6875 10.9209 17.6875C11.2785 17.6875 19.6779 17.6689 19.6779 16.0612C19.6779 15.8209 19.6773 15.2065 16.6407 14.7784C18.435 13.6843 19.8864 12.0823 20.7957 10.174H22.6026C25.0275 10.174 27.0006 8.203 27.0006 5.7802V1.4185C27 1.2562 26.8686 1.1251 26.7066 1.1251H21.8412V0.3412C21.8412 0.1789 21.7098 0.0478001 21.5478 0.0478001H20.2704C20.2658 0.0318138 20.261 0.0158802 20.2562 0H19.6376C19.6433 0.0151662 19.649 0.0304 19.6545 0.0457001H2.3427C2.3508 0.0303726 2.35904 0.0151388 2.36742 0H1.71595ZM25.0767 2.9971H21.8412V5.539C21.8412 6.478 21.7203 7.3891 21.4944 8.2585H22.2066C23.7894 8.2585 25.0767 6.9709 25.0767 5.3887V2.9971ZM10.7964 3.2209C6.3468 1.1395 2.7591 2.7481 2.0205 3.1294V5.4322C2.0205 10.3396 6.0129 14.3323 10.9206 14.3323C15.828 14.3323 19.8207 10.3396 19.8207 5.4322V3.4375C19.1154 3.7693 17.6214 4.3357 15.6267 4.3357C14.2272 4.336 12.5835 4.0567 10.7964 3.2209ZM11.0451 2.689C15.5064 4.7767 19.0842 3.1633 19.8207 2.7808V0.6346H2.0205V2.4718C3.222 1.9069 6.7134 0.6625 11.0451 2.689ZM19.0785 16.0615C18.9498 15.913 18.2088 15.5452 15.9465 15.2809C15.8979 15.2755 15.8559 15.2557 15.8178 15.2299C14.373 15.9472 12.7467 16.3525 11.0271 16.3525H10.8135C9.0939 16.3525 7.4679 15.9472 6.0228 15.2299C5.985 15.2554 5.943 15.2752 5.8944 15.2809C3.6321 15.5449 2.8911 15.9127 2.7624 16.0615C3.0531 16.4278 5.7135 17.1001 10.9206 17.1001C16.1277 17.1001 18.7881 16.4278 19.0785 16.0615ZM10.8138 15.7657H11.0274C16.6665 15.7657 21.2541 11.1781 21.2541 5.539V2.7109C21.2541 2.70955 21.2537 2.70843 21.2534 2.7073C21.253 2.70618 21.2526 2.70505 21.2526 2.7037C21.2526 2.70277 21.2528 2.70191 21.253 2.70109C21.2535 2.69952 21.2541 2.69807 21.2541 2.6965V1.4257C21.2541 1.42431 21.2537 1.42308 21.2533 1.42189C21.253 1.42076 21.2526 1.41967 21.2526 1.4185C21.2526 1.41711 21.253 1.41588 21.2534 1.41469C21.2537 1.41356 21.2541 1.41246 21.2541 1.4113V0.6346H20.4075V5.4322C20.4075 10.6636 16.1523 14.9191 10.9209 14.9191C5.6895 14.9191 1.4337 10.6636 1.4337 5.4322V0.6346H0.5871V5.539C0.5871 11.1781 5.1747 15.7657 10.8138 15.7657ZM22.602 9.5872C24.7032 9.5872 26.4129 7.8793 26.4129 5.7802V1.7122H21.8412V2.4103H25.3701C25.5321 2.4103 25.6635 2.5414 25.6635 2.7037V5.389C25.6635 7.2949 24.1128 8.8456 22.2066 8.8456H21.3222C21.2412 9.097 21.1503 9.3442 21.0519 9.5872H22.602Z" fill="#BF9D81"/>
<path d="M2.25 0.25H19.75V7C19.75 7.41421 19.4142 7.75 19 7.75H3C2.58579 7.75 2.25 7.41421 2.25 7V0.25Z" fill="url(#paint0_linear_974_14)" stroke="#BF9D81" stroke-width="0.5"/>
<defs>
<linearGradient id="paint0_linear_974_14" x1="4.5" y1="4.44444" x2="19" y2="4.44444" gradientUnits="userSpaceOnUse">
<stop stop-color="#E8F8FF"/>
<stop offset="0.83946" stop-color="#CDF1FF"/>
<stop offset="1" stop-color="#AAE7FC"/>
</linearGradient>
</defs>
</svg>
