<svg width="27" height="22" viewBox="0 0 27 22" fill="none" xmlns="http://www.w3.org/2000/svg">
<path d="M20 11.2504C18.5 15.8216 15.4183 19.25 11 19.25C6.58172 19.25 3 15.8216 2 11.2504C6 11.2504 6.58172 11.25 11 11.25C15.4183 11.25 15 11.25 20 11.2504Z" fill="#BF9D81"/>
<path d="M6.5 1.15459C3.5 0.15472 2.66667 1.48792 2 2.65459V5.15472C5 3.6543 7.99969 3.65501 11.5 5.15472C15 6.6543 17 6.6543 20 5.15472C20 4.65472 20.291 3.81887 20 2.65459C19.5 0.654297 16.5 -0.345703 15 1.6543C13.5 0.654006 12 0.82121 11.5 1.15459C10 0.154439 9 -0.845037 6.5 1.15459Z" fill="white"/>
<path fill-rule="evenodd" clip-rule="evenodd" d="M1.71595 4C1.70905 4.01586 1.70227 4.0318 1.6956 4.0478H0.2934C0.1314 4.0478 0 4.1789 0 4.3412V9.539C0 13.4477 2.0847 16.8788 5.2008 18.7787C2.1642 19.2068 2.1636 19.8209 2.1636 20.0612C2.1636 21.6686 10.5633 21.6875 10.9209 21.6875C11.2785 21.6875 19.6779 21.6689 19.6779 20.0612C19.6779 19.8209 19.6773 19.2065 16.6407 18.7784C18.435 17.6843 19.8864 16.0823 20.7957 14.174H22.6026C25.0275 14.174 27.0006 12.203 27.0006 9.7802V5.4185C27 5.2562 26.8686 5.1251 26.7066 5.1251H21.8412V4.3412C21.8412 4.1789 21.7098 4.0478 21.5478 4.0478H20.2704C20.2658 4.03181 20.261 4.01588 20.2562 4H19.6376C19.6433 4.01517 19.649 4.0304 19.6545 4.0457H2.3427C2.3508 4.03037 2.35904 4.01514 2.36742 4H1.71595ZM25.0767 6.9971H21.8412V9.539C21.8412 10.478 21.7203 11.3891 21.4944 12.2585H22.2066C23.7894 12.2585 25.0767 10.9709 25.0767 9.3887V6.9971ZM10.7964 7.2209C6.3468 5.1395 2.7591 6.7481 2.0205 7.1294V9.4322C2.0205 14.3396 6.0129 18.3323 10.9206 18.3323C15.828 18.3323 19.8207 14.3396 19.8207 9.4322V7.4375C19.1154 7.7693 17.6214 8.3357 15.6267 8.3357C14.2272 8.336 12.5835 8.0567 10.7964 7.2209ZM11.0451 6.689C15.5064 8.7767 19.0842 7.1633 19.8207 6.7808V4.6346H2.0205V6.4718C3.222 5.9069 6.7134 4.6625 11.0451 6.689ZM19.0785 20.0615C18.9498 19.913 18.2088 19.5452 15.9465 19.2809C15.8979 19.2755 15.8559 19.2557 15.8178 19.2299C14.373 19.9472 12.7467 20.3525 11.0271 20.3525H10.8135C9.0939 20.3525 7.4679 19.9472 6.0228 19.2299C5.985 19.2554 5.943 19.2752 5.8944 19.2809C3.6321 19.5449 2.8911 19.9127 2.7624 20.0615C3.0531 20.4278 5.7135 21.1001 10.9206 21.1001C16.1277 21.1001 18.7881 20.4278 19.0785 20.0615ZM10.8138 19.7657H11.0274C16.6665 19.7657 21.2541 15.1781 21.2541 9.539V6.7109C21.2541 6.70955 21.2537 6.70843 21.2534 6.7073C21.253 6.70618 21.2526 6.70505 21.2526 6.7037C21.2526 6.70277 21.2528 6.70191 21.253 6.70109C21.2535 6.69952 21.2541 6.69807 21.2541 6.6965V5.4257C21.2541 5.42431 21.2537 5.42308 21.2533 5.42189C21.253 5.42076 21.2526 5.41967 21.2526 5.4185C21.2526 5.41711 21.253 5.41588 21.2534 5.41469C21.2537 5.41356 21.2541 5.41246 21.2541 5.4113V4.6346H20.4075V9.4322C20.4075 14.6636 16.1523 18.9191 10.9209 18.9191C5.6895 18.9191 1.4337 14.6636 1.4337 9.4322V4.6346H0.5871V9.539C0.5871 15.1781 5.1747 19.7657 10.8138 19.7657ZM22.602 13.5872C24.7032 13.5872 26.4129 11.8793 26.4129 9.7802V5.7122H21.8412V6.4103H25.3701C25.5321 6.4103 25.6635 6.5414 25.6635 6.7037V9.389C25.6635 11.2949 24.1128 12.8456 22.2066 12.8456H21.3222C21.2412 13.097 21.1503 13.3442 21.0519 13.5872H22.602Z" fill="#BF9D81"/>
<rect x="2" y="4.75" width="18" height="6.75" fill="white"/>
</svg>
