<svg width="27" height="21" viewBox="0 0 27 21" fill="none" xmlns="http://www.w3.org/2000/svg">
<path d="M19.9145 4.00001C20.5 10 18.9239 17.5 11 17.5C3.07609 17.5 0.999971 11 2.08567 4.00106C5.8391 4.00106 6.85415 4.0011 11.0001 4.0011C15.146 4.0011 14.962 3.99986 19.9145 4.00001Z" fill="#BF9D81"/>
<path d="M6.5 1.50029C3.5 0.500423 2.66667 1.83362 2 3.00029V5.50042C5 4 7.99969 4.00072 11.5 5.50042C15 7 17 7 20 5.50042C20 5.00042 20.291 4.16457 20 3.00029C19.5 1 16.5 0 15 2C13.5 0.999709 12 1.16691 11.5 1.50029C10 0.500142 9 -0.499334 6.5 1.50029Z" fill="white"/>
<path d="M26.7066 3.8751H21.8412V3.0912C21.8412 2.9289 21.7098 2.7978 21.5478 2.7978H20.2704C19.8618 1.3881 18.5499 0.3876 17.0616 0.3876C16.2318 0.3876 15.4497 0.6897 14.8335 1.2429C13.857 0.6378 12.5865 0.585 11.5557 1.1127C10.92 0.4026 10.0275 0 9.0699 0C8.0664 0 7.1217 0.4506 6.4899 1.2183C5.9694 0.9069 5.3832 0.7434 4.7796 0.7434C3.4236 0.7434 2.2107 1.5612 1.6956 2.7978H0.2934C0.1314 2.7978 0 2.9289 0 3.0912V8.289C0 12.1977 2.0847 15.6288 5.2008 17.5287C2.1642 17.9568 2.1636 18.5709 2.1636 18.8112C2.1636 20.4186 10.5633 20.4375 10.9209 20.4375C11.2785 20.4375 19.6779 20.4189 19.6779 18.8112C19.6779 18.5709 19.6773 17.9565 16.6407 17.5284C18.435 16.4343 19.8864 14.8323 20.7957 12.924H22.6026C25.0275 12.924 27.0006 10.953 27.0006 8.5302V4.1685C27 4.0062 26.8686 3.8751 26.7066 3.8751ZM21.8412 5.7471H25.0767V8.1387C25.0767 9.7209 23.7894 11.0085 22.2066 11.0085H21.4944C21.7203 10.1391 21.8412 9.228 21.8412 8.289V5.7471ZM2.0205 5.8794C2.7591 5.4981 6.3468 3.8895 10.7964 5.9709C12.5835 6.8067 14.2272 7.086 15.6267 7.0857C17.6214 7.0857 19.1154 6.5193 19.8207 6.1875V8.1822C19.8207 13.0896 15.828 17.0823 10.9206 17.0823C6.0129 17.0823 2.0205 13.0896 2.0205 8.1822V5.8794ZM19.8207 5.5308C19.0842 5.9133 15.5064 7.5267 11.0451 5.439C6.7134 3.4125 3.222 4.6569 2.0205 5.2218V3.3846H19.8207V5.5308ZM4.7796 1.3302C5.3547 1.3302 5.9112 1.5108 6.3879 1.8525C6.4521 1.8987 6.5322 1.9164 6.6093 1.9032C6.687 1.8894 6.7557 1.8453 6.8004 1.7805C7.3146 1.0329 8.163 0.5868 9.0696 0.5868C9.9285 0.5868 10.7244 0.9804 11.2533 1.6668C11.3448 1.7856 11.5107 1.8162 11.6385 1.7382C12.0756 1.4715 12.5736 1.3305 13.0791 1.3305C13.6611 1.3305 14.2194 1.5123 14.694 1.8558C14.8128 1.9416 14.976 1.9278 15.0771 1.8219C15.6054 1.2753 16.3098 0.9744 17.061 0.9744C18.2295 0.9744 19.2672 1.7217 19.6545 2.7957H2.3427C2.8137 1.9047 3.747 1.3302 4.7796 1.3302ZM15.9465 18.0309C18.2088 18.2952 18.9498 18.663 19.0785 18.8115C18.7881 19.1778 16.1277 19.8501 10.9206 19.8501C5.7135 19.8501 3.0531 19.1778 2.7624 18.8115C2.8911 18.6627 3.6321 18.2949 5.8944 18.0309C5.943 18.0252 5.985 18.0054 6.0228 17.9799C7.4679 18.6972 9.0939 19.1025 10.8135 19.1025H11.0271C12.7467 19.1025 14.373 18.6972 15.8178 17.9799C15.8559 18.0057 15.8979 18.0255 15.9465 18.0309ZM11.0274 18.5157H10.8138C5.1747 18.5157 0.5871 13.9281 0.5871 8.289V3.3846H1.4337V8.1822C1.4337 13.4136 5.6895 17.6691 10.9209 17.6691C16.1523 17.6691 20.4075 13.4136 20.4075 8.1822V3.3846H21.2541V4.1613C21.2541 4.1637 21.2526 4.1658 21.2526 4.1685C21.2526 4.1709 21.2541 4.173 21.2541 4.1757V5.4465C21.2541 5.4489 21.2526 5.451 21.2526 5.4537C21.2526 5.4564 21.2541 5.4582 21.2541 5.4609V8.289C21.2541 13.9281 16.6665 18.5157 11.0274 18.5157ZM26.4129 8.5302C26.4129 10.6293 24.7032 12.3372 22.602 12.3372H21.0519C21.1503 12.0942 21.2412 11.847 21.3222 11.5956H22.2066C24.1128 11.5956 25.6635 10.0449 25.6635 8.139V5.4537C25.6635 5.2914 25.5321 5.1603 25.3701 5.1603H21.8412V4.4622H26.4129V8.5302Z" fill="#BF9D81"/>
</svg>
